<?xml version="1.0" standalone="no"?>
<!DOCTYPE svg PUBLIC "-//W3C//DTD SVG 20010904//EN"
 "http://www.w3.org/TR/2001/REC-SVG-20010904/DTD/svg10.dtd">
<svg version="1.0" xmlns="http://www.w3.org/2000/svg"
 width="1280.000000pt" height="1180.000000pt" viewBox="0 0 1280.000000 1180.000000"
 preserveAspectRatio="xMidYMid meet">
<metadata>
Created by potrace 1.15, written by Peter Selinger 2001-2017
</metadata>
<g transform="translate(0.000000,1180.000000) scale(0.100000,-0.100000)"
fill="#ffffff" stroke="none">
<path d="M5233 11792 c-18 -2 -33 -8 -33 -14 0 -5 -7 -8 -14 -5 -9 4 -17 -2
-21 -13 -3 -10 -22 -24 -41 -30 -21 -7 -44 -25 -56 -44 -19 -30 -19 -42 -13
-434 5 -281 11 -430 21 -490 9 -48 19 -118 24 -157 25 -207 42 -337 51 -400 6
-38 15 -108 20 -155 13 -134 25 -213 37 -250 6 -19 18 -119 26 -223 9 -103 20
-204 26 -225 14 -50 80 -530 80 -581 0 -54 -30 -86 -104 -112 -93 -32 -144
-62 -241 -140 -113 -91 -173 -177 -222 -318 -12 -37 -13 -51 -3 -82 15 -46 7
-95 -21 -125 -12 -13 -56 -37 -100 -54 -74 -30 -149 -83 -227 -162 -73 -73
-109 -182 -138 -418 -9 -69 -19 -129 -24 -135 -12 -15 -38 -129 -50 -220 -6
-44 -16 -102 -22 -130 -6 -27 -13 -172 -15 -321 -5 -305 3 -360 73 -515 19
-42 34 -85 34 -96 0 -11 10 -33 21 -47 l22 -28 -22 -90 c-29 -115 -22 -192 24
-300 28 -65 47 -92 117 -161 160 -160 226 -208 435 -312 40 -20 78 -46 84 -58
7 -12 18 -52 25 -90 21 -111 57 -177 127 -236 34 -28 85 -60 113 -71 28 -10
66 -28 84 -39 18 -10 39 -17 46 -14 17 6 18 -8 3 -39 -11 -26 -139 -106 -181
-115 -15 -3 -33 -12 -39 -19 -6 -8 -19 -14 -28 -14 -9 0 -47 -15 -86 -34 -38
-19 -115 -51 -170 -72 -55 -21 -104 -41 -110 -44 -21 -15 -264 -120 -276 -120
-7 0 -20 -7 -29 -15 -15 -14 -261 -119 -362 -155 -26 -9 -53 -21 -60 -27 -21
-17 -96 -53 -110 -53 -8 0 -45 -15 -83 -33 -39 -19 -88 -40 -110 -47 -22 -7
-52 -21 -67 -32 -15 -10 -51 -27 -81 -37 -30 -11 -92 -37 -138 -60 -46 -22
-122 -55 -169 -74 -278 -112 -823 -354 -828 -368 -2 -5 -12 -9 -22 -9 -10 0
-31 -6 -47 -14 -56 -29 -161 -76 -218 -97 -31 -12 -98 -42 -149 -68 -50 -26
-109 -55 -131 -64 -22 -9 -47 -21 -55 -26 -8 -5 -44 -21 -80 -35 -141 -54
-249 -100 -335 -141 -49 -24 -103 -47 -119 -51 -16 -4 -36 -14 -45 -23 -9 -9
-63 -36 -121 -59 -58 -24 -116 -50 -130 -58 -14 -7 -36 -19 -50 -25 -14 -6
-33 -15 -42 -20 -10 -5 -63 -27 -119 -49 -56 -23 -108 -47 -116 -55 -8 -8 -52
-26 -99 -40 -46 -15 -120 -46 -163 -71 -44 -24 -98 -51 -121 -59 -22 -8 -51
-21 -63 -30 -12 -8 -30 -15 -40 -15 -24 0 -127 -49 -127 -61 0 -5 -9 -9 -20
-9 -23 0 -26 -13 -6 -29 20 -17 127 -37 351 -66 231 -31 261 -36 290 -49 17
-8 80 -21 140 -30 118 -18 196 -32 260 -47 22 -5 73 -14 114 -19 40 -6 77 -12
81 -15 4 -3 55 -12 111 -20 122 -18 238 -39 259 -47 8 -4 44 -9 80 -12 36 -3
79 -10 95 -15 17 -6 79 -18 140 -27 60 -9 159 -29 220 -44 60 -15 155 -32 210
-39 106 -12 157 -21 270 -48 39 -9 88 -17 110 -19 81 -7 221 -35 242 -50 12
-7 33 -14 46 -14 22 0 159 -63 189 -87 7 -6 29 -16 49 -22 20 -6 56 -24 81
-40 25 -16 69 -36 99 -45 30 -8 68 -25 84 -36 17 -11 103 -57 192 -101 175
-87 175 -88 188 -182 6 -43 13 -54 87 -125 96 -92 108 -114 108 -187 0 -50 4
-60 29 -83 27 -26 210 -122 231 -122 6 0 16 -5 23 -11 27 -23 236 -126 407
-199 30 -13 60 -29 65 -35 6 -6 41 -24 79 -40 38 -16 78 -37 90 -46 12 -9 67
-37 121 -60 l100 -44 210 -2 c116 -1 236 2 269 7 75 12 250 101 661 337 77 44
183 104 235 133 52 29 118 67 145 85 28 18 104 63 170 101 l120 69 70 -3 c39
-1 147 -18 240 -37 152 -31 267 -51 405 -70 25 -4 153 -26 285 -50 132 -24
276 -48 320 -54 114 -16 259 -40 335 -56 36 -8 115 -21 175 -30 61 -9 191 -32
290 -50 99 -19 225 -41 280 -50 55 -8 156 -26 225 -39 69 -14 159 -30 200 -36
41 -6 136 -22 210 -36 74 -14 146 -25 160 -25 14 0 86 -11 160 -24 74 -13 211
-36 304 -50 94 -14 172 -28 175 -30 5 -6 6 -3 75 185 26 68 53 131 60 140 7 8
25 42 40 74 14 33 64 125 110 205 46 80 100 177 121 215 21 38 52 91 69 117
17 26 46 71 64 101 18 29 53 80 77 113 25 33 56 80 70 105 14 25 69 115 124
200 94 150 145 226 345 518 50 74 100 148 110 165 19 31 80 118 182 261 27 38
56 79 64 91 122 182 167 247 240 339 47 59 91 118 99 130 8 11 22 33 32 48 41
59 20 71 -166 93 -71 9 -173 24 -226 35 -53 11 -176 29 -274 40 -97 11 -182
23 -188 27 -6 3 -24 8 -41 10 -17 2 -49 5 -71 7 -22 3 -161 28 -310 56 -148
28 -313 58 -365 66 -52 8 -117 21 -145 29 -27 7 -99 21 -160 30 -60 9 -121 19
-135 22 -14 3 -36 7 -50 9 -14 1 -56 10 -95 18 -38 9 -93 16 -122 16 -28 0
-54 4 -57 9 -3 5 -23 11 -43 14 -84 11 -193 30 -283 49 -138 29 -167 34 -355
58 -93 12 -233 37 -310 56 -77 19 -158 34 -180 34 -22 0 -56 4 -75 10 -19 5
-71 14 -115 19 -44 5 -81 14 -83 20 -2 6 -16 11 -32 11 -33 0 -114 15 -185 35
-27 8 -66 17 -85 19 -19 3 -44 8 -55 11 -50 11 -83 17 -275 46 -113 16 -239
39 -280 50 -41 11 -138 30 -215 43 -77 13 -183 33 -235 44 -202 44 -559 112
-640 122 -138 17 -151 20 -180 35 -26 14 -27 16 -33 136 -4 67 -7 173 -7 235
l0 113 58 43 c231 170 244 184 282 297 40 119 12 112 446 115 360 2 372 2 504
29 74 16 155 34 180 42 61 18 199 74 226 92 61 39 130 36 369 -18 91 -20 181
-32 300 -40 222 -14 246 -18 261 -48 7 -13 16 -26 21 -30 5 -3 21 -27 36 -53
47 -81 126 -128 270 -159 158 -34 229 -41 332 -36 83 5 431 54 680 97 273 47
427 60 477 41 13 -5 46 -27 73 -50 56 -47 130 -78 223 -94 74 -13 155 -3 348
42 71 16 140 31 154 33 14 2 42 14 62 26 20 13 71 38 113 56 l77 33 -28 22
c-14 11 -31 21 -36 21 -5 0 -42 33 -82 73 -131 130 -157 231 -121 458 16 101
22 118 68 192 28 45 63 106 78 135 15 29 44 71 64 94 45 53 137 242 176 361
69 210 63 402 -17 637 -37 107 -55 143 -84 175 -21 22 -49 58 -63 80 -15 21
-49 62 -75 90 -27 27 -55 62 -63 77 -8 15 -63 78 -124 141 -80 83 -115 127
-129 163 -11 27 -31 74 -46 105 -32 66 -56 221 -46 289 4 25 9 63 12 85 3 22
12 55 20 72 8 18 21 52 30 75 20 58 44 96 109 178 l55 69 -22 15 c-39 26 -165
39 -368 40 -165 0 -202 -3 -240 -18 -25 -10 -68 -21 -97 -26 -90 -14 -174 -50
-288 -122 -40 -25 -76 -63 -174 -185 -18 -23 -48 -47 -65 -54 -22 -8 -167 -12
-481 -14 -247 -1 -479 -5 -515 -9 -36 -3 -118 -8 -184 -11 -83 -3 -125 -9
-142 -20 -49 -32 -97 -80 -135 -136 -45 -66 -82 -99 -114 -99 -12 0 -56 17
-96 38 -80 42 -339 139 -509 192 -58 17 -112 36 -121 40 -9 5 -45 14 -80 20
-35 7 -68 15 -74 20 -5 4 -17 8 -25 8 -39 4 -80 15 -80 23 0 5 -13 9 -28 9
-16 0 -51 7 -78 15 -27 8 -61 15 -76 15 -15 0 -29 4 -32 9 -4 5 -41 12 -84 16
-42 4 -131 18 -197 32 -66 14 -145 26 -176 28 -31 2 -82 9 -115 15 -32 6 -104
15 -159 20 -55 4 -101 13 -103 18 -2 6 -17 6 -40 1 -24 -6 -78 -4 -157 6 -66
8 -205 19 -310 25 -104 6 -219 17 -255 25 -36 8 -90 18 -120 22 -74 11 -73 8
-122 283 -5 30 -13 69 -18 85 -9 30 -26 169 -36 295 -3 36 -12 83 -20 105 -8
22 -18 76 -23 120 -5 44 -17 125 -25 180 -31 192 -77 497 -111 730 -8 61 -24
151 -35 200 -10 50 -22 122 -25 160 -9 100 -33 219 -55 268 -10 23 -23 75 -29
116 -7 40 -16 82 -21 92 -6 10 -10 31 -10 47 0 16 -7 47 -16 68 -9 21 -26 84
-39 140 -24 104 -59 174 -79 154 -6 -6 -15 -5 -25 4 -39 33 -159 57 -238 48z
m207 -208 c0 -25 -5 -54 -11 -65 -15 -29 7 -124 26 -109 14 11 25 -33 25 -104
0 -23 7 -47 17 -58 15 -16 15 -18 0 -18 -14 0 -15 -3 -1 -35 9 -23 11 -42 6
-53 -5 -9 -7 -22 -5 -29 8 -23 -30 -62 -61 -63 -23 0 -27 3 -23 19 3 12 -1 22
-9 25 -8 3 -14 12 -14 21 0 8 -7 15 -15 15 -8 0 -15 7 -15 15 0 9 -8 14 -22
12 -20 -2 -23 2 -20 28 2 17 10 45 18 63 18 45 8 116 -24 153 -22 27 -23 32
-11 62 8 17 14 52 14 77 0 37 3 44 18 42 9 -2 17 2 17 8 0 5 6 10 14 10 7 0
19 7 26 15 7 8 21 15 31 15 16 0 19 -8 19 -46z m-130 32 c0 -3 -4 -8 -10 -11
-5 -3 -10 -1 -10 4 0 6 5 11 10 11 6 0 10 -2 10 -4z m55 -526 c3 -5 1 -10 -4
-10 -6 0 -11 5 -11 10 0 6 2 10 4 10 3 0 8 -4 11 -10z m80 -120 c-4 -6 6 -7
25 -4 19 4 30 2 30 -5 0 -6 10 -11 21 -11 12 0 41 -19 65 -44 39 -38 44 -49
44 -88 0 -25 9 -97 20 -159 13 -76 17 -124 11 -144 -6 -21 -4 -39 7 -60 9 -16
20 -60 24 -97 14 -120 26 -201 41 -293 9 -49 21 -150 27 -224 11 -139 15 -155
31 -146 12 8 12 -95 0 -114 -6 -9 -6 -22 0 -33 14 -25 41 -171 45 -238 1 -30
10 -89 20 -130 9 -41 17 -104 18 -140 1 -36 7 -75 14 -87 7 -12 14 -56 16 -98
2 -54 8 -81 21 -95 11 -12 15 -28 12 -42 -4 -12 -2 -27 3 -33 5 -6 11 -63 13
-126 2 -63 9 -123 15 -135 6 -11 11 -36 10 -55 -1 -60 22 -233 32 -243 12 -12
13 -53 1 -60 -5 -3 2 -36 15 -72 13 -37 21 -71 18 -75 -2 -5 2 -23 10 -42 22
-54 27 -107 16 -171 -8 -53 -7 -63 11 -93 15 -24 20 -43 15 -65 -3 -17 -2 -45
3 -62 6 -17 14 -56 19 -86 6 -30 13 -66 17 -80 4 -14 11 -50 17 -80 5 -30 16
-82 24 -115 9 -33 18 -90 21 -127 6 -74 0 -97 -54 -190 -18 -31 -33 -64 -33
-73 0 -9 -9 -19 -19 -22 -11 -3 -21 -12 -23 -20 -2 -12 -8 -11 -30 7 -16 12
-28 27 -28 34 0 7 -14 34 -32 61 -27 40 -33 60 -35 114 -1 36 -8 97 -13 135
-9 55 -9 71 2 77 14 9 13 10 -27 28 -17 8 -24 16 -17 18 6 3 12 9 12 15 0 6
-7 7 -16 4 -12 -4 -15 -2 -11 9 4 8 2 17 -3 20 -18 11 -11 37 8 31 14 -5 17 2
19 47 1 28 4 81 7 117 4 53 1 69 -14 85 -32 36 -40 63 -40 134 0 58 -4 75 -20
91 -18 18 -19 24 -8 65 10 35 9 55 0 90 -7 25 -12 72 -12 104 0 52 -3 61 -26
76 -15 9 -23 22 -20 30 3 8 0 17 -5 21 -7 4 -10 58 -8 158 2 89 0 157 -6 166
-23 34 -35 56 -41 72 -3 9 -14 18 -25 21 -21 6 -27 54 -10 85 11 22 -8 133
-26 147 -12 9 -15 78 -9 245 1 34 -5 53 -22 74 -19 24 -22 41 -22 111 0 104
-37 232 -67 227 -15 -2 -14 1 6 16 27 22 30 50 13 127 -6 30 -7 51 -1 53 14 5
11 40 -4 49 -21 12 -27 50 -11 70 19 25 17 40 -6 46 -13 3 -20 14 -20 29 0 14
-3 28 -7 32 -5 4 -8 48 -8 98 l0 90 -35 29 c-24 21 -29 29 -17 29 23 0 22 13
-3 35 -11 10 -20 24 -20 32 0 7 -5 22 -12 33 -10 15 -9 23 6 39 17 18 17 21 3
21 -26 0 -27 14 -5 58 l22 42 -23 45 c-18 37 -20 49 -11 60 17 20 -4 45 -36
45 -12 0 -26 4 -29 10 -7 12 8 42 21 41 5 -1 9 37 10 84 0 52 -3 85 -10 85 -6
0 -6 4 1 11 7 7 5 22 -8 49 -37 77 -12 156 61 192 40 20 54 22 45 8z m160
-2159 c-3 -6 -11 -11 -17 -11 -6 0 -6 6 2 15 14 17 26 13 15 -4z m5913 -245
c14 -13 14 -22 3 -68 -20 -82 -26 -287 -11 -345 7 -26 14 -104 16 -172 2 -101
6 -126 18 -133 20 -11 22 -68 2 -68 -18 0 -31 17 -45 62 -7 20 -34 74 -62 119
-27 45 -49 88 -49 95 0 7 -11 25 -25 40 -13 14 -38 47 -54 73 -17 25 -68 81
-115 124 -47 43 -89 89 -92 103 -12 48 66 135 151 168 63 24 75 25 164 22 59
-3 88 -9 99 -20z m-6173 -46 c4 -6 11 -8 16 -5 5 4 9 5 10 3 8 -39 32 -205 39
-273 6 -49 15 -121 22 -160 6 -38 13 -92 14 -120 2 -27 5 -66 9 -85 12 -74 25
-170 40 -295 8 -71 20 -166 26 -210 31 -233 26 -217 106 -311 23 -28 43 -54
43 -58 0 -4 13 -27 29 -50 17 -24 33 -56 37 -72 4 -16 15 -38 24 -49 38 -43
71 -127 81 -206 5 -44 14 -91 19 -105 6 -14 10 -37 10 -52 1 -25 20 -62 33
-62 14 0 136 -92 173 -132 82 -86 103 -126 130 -250 l26 -116 -20 -80 c-30
-118 -53 -160 -124 -228 -65 -62 -123 -98 -181 -109 -18 -3 -44 -11 -59 -17
-25 -9 -32 -5 -118 84 -100 102 -136 144 -194 230 -21 32 -47 60 -58 63 -10 4
-26 22 -35 41 -14 28 -14 38 -4 58 8 13 11 29 7 34 -3 5 12 32 34 60 22 27 40
53 40 56 0 19 -60 -32 -89 -74 -18 -27 -42 -50 -52 -53 -51 -13 -225 86 -255
146 -17 34 -100 137 -120 149 -7 5 -26 32 -44 60 -34 58 -109 166 -152 220
-15 18 -34 61 -43 93 -22 81 -31 323 -16 395 12 51 29 154 50 305 5 33 14 73
21 90 6 16 15 66 20 110 5 44 22 127 39 185 55 184 81 291 81 332 0 55 38 196
66 243 33 58 151 169 209 199 52 26 99 33 110 16z m920 -15 c30 -11 100 -14
290 -15 138 -1 277 -6 310 -11 33 -6 146 -14 250 -19 105 -5 208 -11 230 -15
22 -3 128 -17 235 -31 107 -13 222 -31 255 -39 33 -7 80 -17 105 -20 58 -8
200 -51 370 -111 41 -14 104 -35 140 -44 161 -45 354 -119 432 -166 46 -27 94
-55 108 -61 14 -6 50 -21 80 -34 30 -13 58 -29 63 -36 4 -6 24 -22 45 -34 20
-13 43 -31 50 -41 9 -13 26 -18 60 -18 75 0 222 -19 281 -36 111 -32 235 -180
281 -334 12 -41 26 -83 31 -92 48 -91 45 -628 -4 -778 -19 -59 -32 -76 -146
-194 -263 -268 -552 -500 -667 -534 -64 -19 -148 -15 -175 7 -34 27 -30 82 10
135 169 225 310 490 357 672 26 99 55 256 49 262 -8 8 -67 -32 -126 -85 -89
-80 -115 -97 -194 -128 -83 -32 -99 -38 -145 -58 -19 -8 -62 -20 -95 -27 -33
-6 -78 -18 -100 -27 -29 -11 -102 -17 -275 -23 -210 -6 -241 -10 -290 -30 -30
-12 -102 -38 -160 -57 -58 -19 -117 -43 -132 -53 -15 -11 -34 -20 -42 -20 -8
0 -18 -4 -21 -10 -3 -5 -13 -10 -22 -10 -9 0 -24 -6 -32 -14 -9 -8 -41 -26
-71 -42 -30 -15 -86 -51 -125 -80 -86 -63 -198 -135 -256 -164 -151 -77 -500
-162 -674 -164 l-70 -1 -105 84 c-97 77 -108 89 -143 160 -58 118 -61 256 -9
358 10 18 29 57 45 86 37 74 169 206 306 305 125 92 255 152 417 195 49 12
103 30 119 38 28 13 30 18 36 89 8 97 10 104 82 237 41 77 82 136 130 188 38
42 67 78 64 81 -11 11 -167 17 -167 7 0 -6 -17 -14 -37 -18 -118 -22 -176 -87
-268 -300 -30 -69 -51 -95 -77 -95 -23 0 -108 68 -224 182 -107 105 -175 214
-199 324 -16 67 -30 104 -38 94 -2 -3 -16 -36 -32 -74 l-28 -69 22 -101 c23
-102 43 -143 126 -260 19 -26 35 -52 35 -57 0 -20 -43 -51 -63 -46 -95 22
-179 75 -199 127 -18 47 -39 178 -84 530 -57 441 -60 475 -43 496 28 34 66 40
124 19z m3855 -237 c47 -5 208 -9 357 -8 257 1 275 0 320 -20 27 -12 62 -34
78 -49 17 -15 46 -37 65 -49 35 -21 114 -98 141 -138 8 -12 40 -57 73 -99 54
-72 176 -304 176 -335 0 -8 9 -41 19 -74 11 -34 29 -131 42 -216 19 -134 21
-180 16 -335 -7 -210 -22 -368 -42 -445 -13 -52 -27 -124 -25 -135 0 -3 -7
-19 -15 -35 -9 -17 -14 -34 -11 -38 7 -12 -90 -271 -111 -294 -33 -37 -72 -49
-191 -58 -64 -6 -162 -15 -217 -21 -55 -6 -116 -13 -135 -14 -19 -1 -69 -8
-110 -14 -106 -16 -478 -53 -586 -58 -123 -6 -129 1 -85 105 56 131 97 290
133 522 20 128 22 182 22 455 0 281 -2 320 -22 415 -12 58 -22 113 -22 124 0
21 -131 382 -161 441 -18 39 -54 88 -176 247 -53 70 -58 92 -25 121 10 9 28
17 42 19 43 7 360 -2 450 -14z m-5344 -556 c8 -17 5 -58 -17 -184 -54 -321
-71 -434 -84 -557 -8 -69 -19 -166 -25 -214 -22 -187 25 -340 139 -452 34 -33
61 -65 61 -73 0 -12 19 -43 62 -102 10 -14 30 -42 43 -63 36 -53 157 -179 240
-249 241 -204 330 -290 322 -312 -8 -20 -43 -21 -105 -2 -26 8 -76 22 -112 32
-36 10 -71 22 -79 28 -17 13 -70 33 -147 55 -33 10 -80 27 -105 38 -24 11 -59
26 -78 34 -19 7 -55 29 -80 48 -25 19 -53 35 -61 36 -8 0 -27 12 -41 25 -23
23 -46 38 -119 80 -43 25 -184 181 -207 230 -11 25 -24 61 -27 80 -3 19 -10
55 -15 80 -14 67 -16 407 -3 455 6 22 16 83 22 135 6 52 19 122 29 155 60 187
86 340 62 369 -9 11 -10 38 -6 94 l7 80 68 67 c58 58 76 69 141 90 87 28 100
27 115 -3z m6901 -10 c57 -56 263 -288 308 -347 22 -28 55 -68 73 -89 17 -20
32 -41 32 -46 0 -6 13 -29 30 -51 121 -168 131 -643 15 -794 -34 -46 -85 -53
-218 -31 -56 9 -129 21 -162 26 -33 6 -69 14 -80 19 -11 5 -28 12 -39 15 -16
6 -18 13 -12 54 20 141 29 305 30 542 0 266 -10 389 -40 478 -21 64 -45 211
-38 238 10 38 55 32 101 -14z m-2982 -1539 c-7 -51 -69 -182 -107 -229 -13
-16 -32 -42 -43 -59 -36 -57 -111 -128 -190 -180 -44 -29 -106 -72 -137 -94
-32 -22 -58 -39 -58 -36 0 2 -19 -5 -42 -15 -61 -26 -174 -48 -315 -59 -151
-12 -199 1 -250 70 -17 24 -32 47 -32 52 -1 4 -21 32 -45 62 -37 45 -43 59
-37 81 6 24 26 33 206 101 110 41 214 79 231 84 17 5 66 29 109 54 85 48 87
49 245 65 138 15 177 24 274 65 44 18 88 36 96 39 8 4 29 15 45 25 50 32 58
28 50 -26z m-2042 -289 c44 -8 51 -38 13 -55 -48 -22 -44 -101 5 -118 30 -10
49 -44 49 -87 0 -17 8 -27 24 -34 45 -17 66 -57 66 -124 0 -70 -37 -186 -70
-221 l-22 -23 31 -7 c38 -8 51 -30 51 -89 0 -122 -41 -194 -106 -187 -20 2
-34 51 -49 179 -8 70 -20 154 -25 187 -6 33 -22 125 -36 205 -29 171 -43 360
-25 360 6 0 11 7 11 16 0 12 6 15 23 10 12 -3 39 -9 60 -12z m-304 -220 c12
-15 21 -33 21 -41 0 -8 9 -28 20 -44 16 -22 22 -48 25 -111 2 -46 12 -123 23
-173 12 -49 26 -128 32 -175 6 -47 18 -118 26 -159 12 -59 13 -83 4 -122 -7
-27 -16 -49 -21 -49 -5 0 -9 -7 -9 -16 0 -10 7 -14 23 -12 19 3 23 -3 28 -42
14 -98 37 -187 60 -230 27 -51 29 -82 15 -345 -4 -88 -10 -216 -12 -285 -6
-133 -12 -150 -60 -150 -25 0 -74 52 -74 78 0 28 -35 114 -63 155 -37 54 -60
164 -58 274 1 94 0 97 -43 127 -24 16 -16 57 17 90 16 16 22 34 22 65 0 36 -5
47 -32 70 -26 22 -32 34 -32 66 1 22 -6 57 -15 77 -20 46 -20 48 -1 48 8 0 15
7 15 15 0 8 -4 15 -10 15 -5 0 -14 19 -21 42 -8 32 -8 51 2 80 10 33 10 40 -3
51 -17 14 -43 111 -33 127 4 6 1 17 -5 25 -7 8 -9 26 -6 39 3 14 2 27 -3 31
-5 3 -15 21 -21 41 -10 30 -9 38 4 52 28 29 81 115 93 152 7 19 19 80 28 135
23 143 26 147 64 99z m-1702 -76 c44 -24 99 -53 121 -66 41 -22 111 -50 243
-96 36 -13 74 -28 85 -34 23 -12 107 -32 134 -32 12 0 23 -7 26 -15 4 -10 21
-15 54 -15 27 0 51 -4 54 -9 7 -11 133 -29 348 -50 112 -11 134 -25 143 -90 9
-67 -8 -102 -59 -119 -28 -9 -48 -10 -67 -3 -18 6 -77 6 -166 -1 -156 -11
-157 -11 -313 30 -63 17 -144 35 -180 42 -36 7 -84 21 -107 31 -24 10 -49 19
-58 19 -16 0 -92 37 -115 56 -8 7 -43 27 -77 44 -47 24 -70 43 -93 79 -16 26
-30 53 -30 59 0 6 -8 16 -19 21 -20 11 -45 66 -56 123 -5 26 -2 39 10 51 23
24 31 22 122 -25z m1283 -829 c30 -119 23 -148 -40 -167 -62 -19 -313 -28
-368 -13 -77 21 -99 99 -47 167 36 46 70 60 176 68 47 4 108 13 135 20 27 8
65 14 85 15 l37 1 22 -91z m20 -294 c0 -19 -39 -40 -51 -28 -5 5 -7 17 -3 26
8 21 54 23 54 2z m-267 -145 c86 -13 195 -36 257 -56 25 -8 58 -14 73 -14 16
0 38 -5 50 -11 45 -23 123 -98 142 -135 11 -21 29 -53 41 -70 11 -18 27 -54
33 -81 19 -72 31 -94 75 -139 23 -22 59 -66 81 -98 42 -61 88 -96 126 -96 55
0 99 62 99 137 0 21 7 58 16 83 9 25 18 88 21 140 3 61 9 100 18 109 12 12 34
12 152 -3 127 -16 274 -44 349 -67 17 -5 91 -20 165 -33 295 -54 530 -99 639
-122 63 -14 198 -40 300 -59 102 -19 196 -39 210 -45 14 -5 104 -21 200 -35
96 -14 193 -31 215 -37 22 -6 58 -12 80 -14 44 -3 323 -51 342 -58 6 -3 49
-10 95 -16 46 -6 108 -18 138 -25 201 -52 455 -99 670 -125 91 -11 192 -28
225 -37 33 -8 87 -19 120 -23 33 -4 112 -17 175 -28 63 -12 223 -37 355 -57
132 -20 269 -43 305 -50 36 -8 103 -19 150 -25 47 -7 130 -20 185 -30 143 -27
372 -58 497 -69 71 -6 117 -15 137 -27 31 -18 40 -34 21 -34 -5 0 -10 -8 -10
-18 0 -10 -23 -45 -51 -77 -70 -82 -149 -189 -190 -258 -69 -117 -78 -131
-101 -156 -13 -14 -39 -48 -57 -76 -19 -27 -42 -61 -53 -75 -10 -14 -58 -83
-105 -155 -48 -71 -105 -155 -128 -185 -81 -106 -238 -346 -263 -400 -14 -30
-28 -57 -32 -60 -4 -3 -44 -72 -89 -154 -45 -82 -92 -163 -105 -180 -13 -17
-69 -112 -125 -211 -56 -99 -106 -187 -111 -195 -5 -8 -27 -52 -50 -97 -23
-45 -48 -87 -55 -93 -7 -6 -25 -46 -40 -88 -15 -42 -31 -86 -36 -97 -5 -11
-13 -40 -18 -65 -12 -55 -57 -100 -101 -100 -32 0 -210 29 -222 36 -7 5 -242
42 -343 54 -38 5 -119 18 -180 29 -334 62 -588 103 -817 131 -42 5 -132 23
-200 39 -68 16 -184 37 -258 46 -74 9 -164 23 -200 31 -36 8 -99 19 -140 24
-41 6 -92 15 -112 21 -20 5 -79 16 -130 24 -196 29 -247 38 -363 62 -66 13
-160 29 -210 34 -49 5 -106 14 -125 19 -19 5 -98 18 -174 30 -202 29 -212 33
-227 78 -14 46 -42 77 -82 92 -18 7 -41 16 -52 21 -11 4 -40 13 -65 19 -25 7
-54 18 -66 25 -11 7 -40 19 -64 25 -24 7 -87 31 -140 55 -53 24 -123 51 -156
61 -32 9 -75 25 -94 35 -51 28 -228 104 -275 119 -56 18 -238 91 -250 100 -5
4 -32 10 -60 13 -61 6 -417 80 -470 97 -29 10 -88 11 -241 6 l-203 -8 -161 71
c-170 75 -207 83 -302 62 -98 -22 -153 -29 -163 -20 -5 5 -16 9 -25 9 -9 0
-25 9 -35 20 -15 17 -16 24 -5 49 22 54 11 73 -55 97 -89 32 -187 75 -215 93
-19 13 -53 16 -174 16 l-150 0 -11 60 c-10 58 -11 60 -47 69 -26 7 -49 5 -77
-4 -22 -7 -63 -11 -95 -8 -67 6 -101 32 -117 92 -20 73 -28 87 -67 102 -20 9
-59 26 -87 39 -27 12 -85 35 -127 50 l-78 27 -188 -31 c-103 -17 -248 -45
-322 -62 -74 -16 -155 -33 -180 -35 -65 -8 -96 -22 -109 -50 -15 -34 -14 -252
2 -283 6 -13 47 -43 90 -67 43 -24 92 -55 108 -68 16 -14 39 -28 50 -31 17 -6
19 -9 8 -16 -22 -14 -177 -10 -254 7 -133 28 -350 64 -387 64 -20 0 -39 4 -42
9 -3 4 -41 11 -83 14 -43 4 -114 13 -158 22 -142 28 -179 34 -228 34 -29 1
-46 5 -42 11 4 6 -7 10 -24 10 -17 0 -31 4 -31 9 0 4 -11 6 -24 4 -13 -3 -49
2 -79 11 -30 9 -62 14 -69 11 -8 -3 -28 -1 -44 5 -16 7 -53 16 -83 21 -65 10
-95 33 -80 60 15 29 83 68 157 91 88 26 161 57 191 80 13 10 34 18 47 18 12 0
26 5 29 10 3 6 16 10 27 10 11 0 35 9 54 20 18 12 88 41 155 66 67 24 176 71
243 103 67 33 132 62 146 66 14 4 61 27 106 51 44 24 128 61 185 83 95 35 184
71 264 106 109 48 215 94 245 105 19 8 65 31 102 52 69 41 122 64 303 133 61
24 144 56 185 72 42 16 94 41 115 56 22 15 45 27 51 27 11 0 107 40 289 120
61 27 160 69 220 93 61 25 173 75 248 111 235 113 493 230 637 287 41 17 100
43 130 58 30 16 134 65 230 110 96 45 229 108 295 140 104 50 304 140 313 141
2 0 36 -5 75 -10z m-2833 -2037 c101 -41 125 -64 133 -128 8 -54 21 -75 47
-75 10 0 20 -4 22 -9 2 -5 64 -11 138 -13 l135 -3 30 -63 30 -63 161 7 c149 6
165 5 205 -14 219 -101 229 -108 252 -187 11 -41 21 -54 53 -73 33 -19 49 -22
99 -18 33 3 81 10 107 17 44 12 48 11 81 -14 20 -15 43 -27 52 -27 25 0 72
-27 79 -46 4 -11 13 -14 30 -10 14 3 28 0 35 -8 7 -8 27 -17 45 -20 19 -4 45
-15 57 -25 38 -29 65 -33 114 -17 33 12 87 16 198 16 141 0 218 -6 387 -30 36
-5 103 -14 150 -19 104 -12 207 -33 239 -50 13 -7 62 -26 110 -43 47 -16 91
-34 97 -39 6 -5 34 -16 61 -24 27 -8 110 -41 184 -73 74 -33 145 -62 159 -67
24 -6 103 -40 215 -91 28 -12 82 -34 120 -49 38 -14 87 -34 110 -45 22 -10 48
-21 58 -24 20 -6 37 -45 37 -87 0 -68 -66 -139 -128 -139 -29 0 -49 -10 -92
-45 -57 -47 -158 -103 -245 -136 -52 -19 -130 -65 -201 -118 -23 -17 -45 -31
-51 -31 -5 0 -29 -14 -53 -31 -36 -26 -47 -30 -61 -20 -16 9 -26 4 -67 -32
-85 -75 -116 -97 -131 -97 -9 0 -36 -14 -60 -30 -35 -24 -55 -30 -95 -30 -28
0 -134 -3 -236 -6 l-185 -5 -85 41 c-47 23 -93 45 -102 51 -10 5 -23 9 -29 9
-5 0 -25 11 -43 25 -18 14 -40 25 -48 25 -8 0 -26 8 -39 19 -13 10 -35 22 -49
26 -14 4 -36 16 -49 26 -13 11 -34 19 -46 19 -12 0 -34 9 -48 20 -14 11 -29
20 -35 20 -5 0 -17 8 -26 19 -9 10 -35 21 -58 24 -24 3 -51 16 -67 31 -14 14
-48 35 -76 47 -52 23 -109 75 -99 90 3 5 -14 9 -38 9 -38 0 -46 4 -65 35 -13
19 -23 41 -23 48 0 25 -74 127 -92 127 -10 0 -18 5 -18 12 0 6 -12 27 -26 45
-23 30 -26 42 -21 81 3 27 -1 77 -10 117 -20 94 -26 106 -31 72 -3 -26 -6 -28
-30 -22 -41 10 -123 53 -164 86 -20 16 -44 29 -53 29 -21 0 -68 25 -84 44 -7
9 -17 13 -22 10 -5 -3 -24 4 -42 14 -17 11 -57 28 -87 38 -30 9 -64 25 -75 34
-11 10 -36 20 -55 24 -19 3 -55 20 -79 36 -24 17 -51 30 -60 30 -8 0 -64 27
-123 60 -59 33 -113 60 -121 60 -8 0 -20 7 -27 15 -7 8 -21 15 -31 15 -10 0
-33 13 -51 28 -18 16 -45 32 -60 36 -16 3 -28 11 -28 16 0 6 -13 10 -29 10
-16 0 -34 7 -41 15 -7 8 -18 15 -24 15 -19 0 -170 62 -199 83 -16 10 -53 26
-84 34 -31 8 -79 31 -107 52 -53 39 -111 71 -129 71 -26 0 -100 45 -109 66
-17 36 8 112 44 134 15 9 76 25 135 35 60 10 116 22 125 26 10 5 28 5 44 -1
20 -8 31 -7 43 3 9 8 30 17 46 21 17 4 46 11 65 15 55 13 118 2 210 -36z"/>
<path d="M5375 11290 c3 -5 8 -10 11 -10 2 0 4 5 4 10 0 6 -5 10 -11 10 -5 0
-7 -4 -4 -10z"/>
<path d="M5645 6166 c-17 -12 -14 -15 41 -31 32 -9 79 -32 104 -51 54 -40 39
-25 156 -161 53 -62 100 -113 105 -113 5 0 9 9 9 20 0 24 -31 90 -42 90 -4 0
-8 5 -8 11 0 22 -125 160 -171 189 -97 59 -157 74 -194 46z"/>
<path d="M6820 6740 c-19 -5 -73 -16 -120 -25 -47 -9 -103 -25 -125 -34 -47
-22 -77 -34 -87 -35 -3 -1 -10 -4 -14 -8 -4 -5 -16 -8 -26 -8 -22 0 -24 -28
-3 -36 18 -7 47 0 215 55 69 23 143 47 165 54 24 7 41 19 43 30 4 19 3 19 -48
7z"/>
<path d="M6889 6721 c-15 -17 -13 -18 27 -29 24 -7 76 -32 116 -57 75 -47 98
-54 98 -32 0 21 -82 95 -130 116 -54 25 -90 25 -111 2z"/>
<path d="M7140 6555 c7 -9 15 -13 17 -11 7 7 -7 26 -19 26 -6 0 -6 -6 2 -15z"/>
<path d="M6360 6395 c-10 -12 -10 -21 0 -44 6 -16 9 -39 5 -50 -4 -15 -2 -21
8 -21 8 0 17 -13 21 -30 3 -18 12 -30 21 -30 8 0 15 -4 15 -8 0 -20 43 -52 70
-52 17 0 30 -3 30 -7 0 -5 11 -13 25 -20 38 -17 30 2 -17 39 -100 79 -177 184
-162 222 8 20 0 21 -16 1z"/>
<path d="M6660 6110 c-12 -8 -10 -10 8 -10 13 0 20 4 17 10 -7 12 -6 12 -25 0z"/>
<path d="M6275 4789 c-12 -19 5 -23 22 -6 16 16 16 17 1 17 -9 0 -20 -5 -23
-11z"/>
<path d="M6876 3701 c-9 -14 36 -38 84 -45 125 -17 150 -18 150 -7 0 6 -7 11
-15 11 -9 0 -34 9 -57 21 -39 20 -52 20 -106 4 -18 -6 -21 -4 -16 9 4 11 0 16
-14 16 -12 0 -23 -4 -26 -9z"/>
<path d="M6751 3687 c-28 -14 -34 -26 -22 -46 12 -18 57 -3 96 33 l28 26 -39
0 c-21 0 -50 -6 -63 -13z"/>
<path d="M7140 3600 c0 -5 12 -10 28 -9 24 0 25 1 7 9 -27 12 -35 12 -35 0z"/>
<path d="M7587 3535 c-36 -19 -75 -35 -86 -35 -25 0 -38 -20 -20 -31 30 -19
102 -9 156 21 29 17 64 30 79 30 14 0 34 5 45 11 35 18 5 39 -56 39 -40 0 -67
-8 -118 -35z"/>
<path d="M6525 3149 c-9 -14 -7 -15 38 -22 40 -6 49 6 18 23 -25 13 -48 13
-56 -1z"/>
<path d="M6830 3079 c0 -5 5 -7 10 -4 6 3 10 8 10 11 0 2 -4 4 -10 4 -5 0 -10
-5 -10 -11z"/>
<path d="M8230 3050 c-8 -5 -12 -11 -9 -14 2 -3 11 -1 19 4 8 5 12 11 9 14 -2
3 -11 1 -19 -4z"/>
<path d="M7120 3030 c8 -5 22 -10 30 -10 13 0 13 1 0 10 -8 5 -22 10 -30 10
-13 0 -13 -1 0 -10z"/>
<path d="M8245 3020 c-7 -12 32 -12 60 0 16 7 13 9 -17 9 -20 1 -40 -3 -43 -9z"/>
<path d="M7200 3010 c0 -5 5 -10 11 -10 5 0 7 5 4 10 -3 6 -8 10 -11 10 -2 0
-4 -4 -4 -10z"/>
<path d="M8350 3010 c0 -5 5 -10 10 -10 6 0 10 5 10 10 0 6 -4 10 -10 10 -5 0
-10 -4 -10 -10z"/>
<path d="M8415 2990 c11 -4 47 -13 80 -18 33 -6 111 -22 173 -37 108 -25 151
-27 137 -5 -3 5 -21 10 -39 10 -44 0 -174 29 -208 46 -15 8 -56 14 -95 13 -46
0 -61 -3 -48 -9z"/>
<path d="M7538 2953 c7 -3 16 -2 19 1 4 3 -2 6 -13 5 -11 0 -14 -3 -6 -6z"/>
<path d="M7590 2941 c0 -6 7 -11 15 -11 8 0 15 -5 15 -12 0 -9 3 -9 12 0 14
14 11 17 -19 26 -14 5 -23 3 -23 -3z"/>
<path d="M6810 2910 c0 -5 5 -10 10 -10 6 0 10 5 10 10 0 6 -4 10 -10 10 -5 0
-10 -4 -10 -10z"/>
<path d="M8870 2910 c1 -26 25 -35 102 -38 57 -3 85 -8 91 -18 5 -8 25 -14 50
-14 41 -1 200 -34 307 -64 30 -9 73 -16 96 -16 22 0 44 -3 48 -7 13 -14 121
-31 131 -22 5 6 3 9 -6 9 -9 0 -30 7 -47 16 -17 8 -64 21 -104 29 -40 8 -136
26 -213 40 -77 14 -150 31 -161 37 -12 5 -31 7 -42 4 -12 -4 -22 -1 -25 7 -3
8 -28 17 -59 22 -107 15 -168 21 -168 15z"/>
<path d="M7804 2895 c-16 -12 -17 -14 -2 -15 23 0 48 11 48 21 0 14 -24 11
-46 -6z"/>
<path d="M7880 2870 c0 -5 7 -10 15 -10 8 0 15 5 15 10 0 6 -7 10 -15 10 -8 0
-15 -4 -15 -10z"/>
<path d="M6990 2861 c24 -14 108 -23 114 -13 8 13 -28 22 -84 22 -30 -1 -40
-3 -30 -9z"/>
<path d="M8050 2860 c-8 -5 -11 -12 -7 -16 4 -4 13 -2 19 4 15 15 7 24 -12 12z"/>
<path d="M8110 2839 c0 -5 5 -7 10 -4 6 3 10 8 10 11 0 2 -4 4 -10 4 -5 0 -10
-5 -10 -11z"/>
<path d="M7190 2830 c8 -5 40 -10 70 -10 39 0 51 3 40 10 -8 5 -40 10 -70 10
-39 0 -51 -3 -40 -10z"/>
<path d="M5440 2820 c0 -12 27 -12 55 0 16 7 13 9 -17 9 -21 1 -38 -3 -38 -9z"/>
<path d="M8180 2821 c-22 -6 -23 -8 -7 -14 10 -4 27 -2 38 3 18 10 23 6 20
-12 -1 -9 23 -11 32 -2 3 3 3 12 0 20 -5 15 -41 17 -83 5z"/>
<path d="M7324 2807 c-17 -10 -14 -12 26 -20 93 -17 133 -20 126 -8 -4 6 -2
11 4 11 6 0 13 -6 16 -14 6 -15 74 -36 139 -43 l40 -4 -24 17 c-13 10 -40 21
-60 25 -20 4 -54 12 -76 18 -22 6 -59 11 -82 11 -23 0 -52 4 -65 9 -16 6 -31
5 -44 -2z"/>
<path d="M8317 2784 c21 -16 83 -19 83 -4 0 11 -1 12 -58 15 -39 3 -42 2 -25
-11z"/>
<path d="M5690 2782 c24 -15 117 -26 104 -13 -6 7 -35 14 -65 17 -36 3 -49 2
-39 -4z"/>
<path d="M8500 2770 c0 -5 5 -10 10 -10 6 0 10 5 10 10 0 6 -4 10 -10 10 -5 0
-10 -4 -10 -10z"/>
<path d="M5833 2763 c-23 -9 -14 -21 20 -26 17 -3 76 -17 130 -31 53 -13 122
-27 152 -30 62 -5 151 -24 177 -37 9 -4 47 -13 85 -20 37 -6 95 -17 129 -25
33 -8 72 -14 86 -14 14 0 54 -8 89 -19 35 -10 73 -19 84 -19 32 -1 128 -22
150 -32 11 -6 45 -12 75 -15 30 -2 86 -13 125 -25 38 -11 84 -20 100 -20 17 0
55 -7 85 -15 30 -8 82 -20 115 -25 97 -16 209 -41 227 -50 11 -6 18 -5 20 2 3
8 10 7 27 -1 12 -7 97 -28 189 -47 92 -20 185 -40 207 -45 22 -5 85 -16 139
-24 54 -9 147 -26 205 -39 58 -13 162 -36 231 -50 69 -15 143 -31 165 -37 22
-5 74 -16 115 -24 41 -8 91 -19 110 -25 19 -6 86 -17 148 -26 62 -8 125 -19
140 -25 39 -15 196 -46 272 -55 36 -3 80 -13 99 -20 18 -8 52 -14 75 -14 22
-1 59 -7 81 -15 22 -8 78 -19 125 -25 47 -6 101 -17 120 -24 19 -8 91 -24 160
-36 69 -12 177 -33 240 -47 178 -38 329 -63 346 -56 8 3 13 10 11 16 -4 12
-80 35 -137 42 -90 11 -208 33 -233 44 -16 6 -43 11 -62 11 -19 0 -37 4 -40
10 -3 5 -21 10 -39 10 -18 0 -75 9 -127 21 -52 11 -121 25 -154 30 -33 5 -73
14 -90 19 -30 10 -98 23 -125 25 -32 2 -97 17 -131 30 -20 8 -74 19 -120 25
-46 6 -111 18 -144 26 -56 14 -91 22 -205 44 -25 4 -92 18 -150 29 -58 12
-150 31 -205 42 -55 11 -185 38 -290 60 -104 22 -257 51 -340 65 -82 14 -159
29 -170 34 -11 4 -47 12 -80 18 -33 5 -78 15 -100 22 -22 6 -80 18 -128 25
-49 8 -92 17 -96 20 -5 2 -57 11 -115 20 -59 8 -114 19 -124 23 -9 5 -44 12
-77 16 -33 4 -91 16 -130 28 -38 11 -94 23 -124 25 -30 3 -64 11 -75 18 -12 7
-66 20 -121 29 -55 9 -127 20 -160 26 -33 6 -98 17 -145 24 -47 8 -98 20 -115
26 -16 7 -64 18 -105 26 -41 7 -95 18 -120 24 -25 6 -94 20 -155 30 -60 10
-120 22 -132 26 -15 4 -23 2 -23 -6 0 -9 -4 -10 -13 -2 -7 6 -32 14 -55 18
-23 4 -45 11 -48 15 -6 10 -31 11 -51 2z"/>
<path d="M4805 2750 c3 -5 14 -10 23 -10 15 0 15 2 2 10 -20 13 -33 13 -25 0z"/>
<path d="M7700 2742 c0 -5 6 -17 14 -27 10 -14 31 -20 92 -24 43 -4 93 -14
110 -22 19 -10 37 -13 45 -8 7 4 28 1 47 -7 18 -7 67 -18 109 -23 42 -5 82
-16 92 -25 12 -11 37 -16 77 -16 32 -1 86 -7 119 -15 68 -17 145 -20 145 -6 0
6 -21 12 -47 16 -27 3 -70 12 -98 20 -68 20 -205 44 -298 51 -43 4 -80 11 -83
15 -3 5 -15 9 -27 9 -13 0 -31 6 -42 14 -11 7 -53 16 -93 20 -40 4 -92 14
-114 22 -47 16 -48 16 -48 6z"/>
<path d="M8635 2730 c-3 -5 1 -10 9 -10 8 0 18 5 21 10 3 6 -1 10 -9 10 -8 0
-18 -4 -21 -10z"/>
<path d="M4920 2723 c0 -6 26 -14 58 -18 31 -4 72 -13 91 -21 41 -17 63 -18
79 -2 9 9 3 15 -26 25 -50 17 -202 29 -202 16z"/>
<path d="M9785 2717 c11 -6 46 -17 78 -24 32 -6 71 -19 87 -27 17 -8 32 -10
36 -5 3 5 14 4 27 -3 29 -15 125 -37 212 -49 39 -5 102 -18 140 -30 123 -37
335 -62 335 -39 0 6 -4 9 -10 5 -5 -3 -24 1 -43 9 -52 21 -138 31 -147 16 -6
-10 -14 -9 -36 3 -57 31 -149 58 -213 63 -63 5 -162 24 -227 44 -28 9 -240 50
-253 50 -3 0 3 -6 14 -13z"/>
<path d="M8700 2711 c0 -12 44 -19 75 -13 42 8 28 20 -25 20 -27 1 -50 -3 -50
-7z"/>
<path d="M8860 2691 c8 -6 35 -13 60 -16 25 -3 60 -7 78 -10 18 -2 30 0 27 5
-3 5 -31 11 -63 15 -31 3 -70 8 -87 11 -23 4 -26 3 -15 -5z"/>
<path d="M5175 2680 c3 -5 16 -10 28 -10 12 0 42 -9 66 -21 25 -11 65 -20 90
-21 25 0 82 -10 125 -21 44 -10 102 -23 130 -27 28 -5 85 -15 126 -24 41 -8
100 -20 130 -26 30 -6 136 -30 235 -54 156 -38 318 -70 420 -82 44 -5 123 -23
175 -39 41 -13 230 -52 283 -59 12 -2 29 -6 37 -10 8 -3 60 -15 115 -25 55
-11 120 -24 145 -30 110 -25 313 -61 318 -57 3 3 11 1 17 -4 7 -5 66 -21 131
-34 65 -14 164 -36 219 -50 55 -14 167 -37 249 -51 82 -14 156 -29 165 -34 9
-5 36 -12 61 -15 101 -14 281 -49 370 -71 52 -14 138 -31 190 -40 159 -25 300
-53 410 -81 58 -14 130 -30 160 -34 50 -7 129 -23 248 -50 23 -6 59 -10 80
-10 21 0 61 -7 88 -15 96 -28 360 -84 429 -91 39 -4 73 -12 77 -18 15 -24 221
-46 234 -25 18 30 -15 40 -401 119 -159 33 -323 67 -363 76 -40 9 -141 28
-225 44 -84 15 -222 43 -307 63 -212 49 -360 78 -580 117 -36 6 -78 15 -95 20
-16 5 -104 23 -195 40 -91 17 -208 40 -260 51 -52 11 -140 29 -195 40 -55 11
-129 27 -165 35 -104 25 -283 55 -297 50 -7 -3 -28 1 -47 9 -20 8 -49 15 -66
15 -17 0 -41 5 -52 11 -11 6 -53 17 -92 24 -39 8 -111 23 -161 34 -163 38
-369 82 -445 96 -41 7 -104 20 -140 28 -36 8 -112 25 -170 37 -58 11 -125 26
-150 32 -25 6 -68 14 -97 18 -29 5 -68 14 -88 20 -20 7 -71 16 -113 20 -93 10
-207 34 -225 47 -6 5 -34 9 -62 8 -27 -1 -68 5 -90 13 -22 7 -76 18 -120 22
-44 5 -102 14 -130 20 -123 27 -231 37 -220 20z"/>
<path d="M9080 2651 c0 -12 17 -17 115 -32 44 -6 84 -16 90 -20 5 -5 18 -9 30
-9 12 0 26 -5 32 -11 14 -14 25 3 17 26 -5 11 -14 15 -30 11 -12 -3 -26 -2
-29 4 -3 5 -25 10 -48 10 -23 0 -69 7 -102 15 -72 17 -75 17 -75 6z"/>
<path d="M9380 2600 c0 -5 5 -10 10 -10 6 0 10 -6 10 -14 0 -16 168 -32 183
-17 12 12 -13 18 -102 25 -35 2 -68 9 -74 15 -14 14 -27 14 -27 1z"/>
<path d="M8565 2559 c-4 -6 -5 -12 -3 -14 6 -6 179 -43 274 -59 146 -23 302
-56 415 -87 58 -16 125 -29 148 -29 23 0 49 -4 59 -9 22 -12 131 -37 268 -60
60 -11 172 -31 248 -46 152 -28 204 -26 122 5 -27 11 -70 22 -95 25 -25 4 -68
12 -96 20 -58 15 -253 54 -340 67 -33 5 -108 20 -166 33 -58 14 -117 25 -131
25 -14 0 -42 7 -61 15 -20 8 -80 20 -134 25 -54 6 -118 17 -143 25 -44 13
-108 26 -224 46 -32 5 -67 14 -77 19 -24 13 -56 13 -64 -1z"/>
<path d="M4580 2550 c0 -5 9 -10 20 -10 11 0 20 5 20 10 0 6 -9 10 -20 10 -11
0 -20 -4 -20 -10z"/>
<path d="M9620 2553 c-42 -14 -40 -17 15 -25 118 -17 181 -20 170 -9 -16 16
-80 27 -71 13 10 -17 2 -15 -39 8 -36 20 -48 22 -75 13z"/>
<path d="M4660 2540 c0 -5 4 -10 9 -10 6 0 13 5 16 10 3 6 -1 10 -9 10 -9 0
-16 -4 -16 -10z"/>
<path d="M4745 2529 c-3 -4 11 -13 32 -18 46 -13 63 -14 63 -3 0 12 -89 31
-95 21z"/>
<path d="M3780 2511 c0 -10 24 -21 43 -21 7 0 3 7 -7 15 -22 17 -36 19 -36 6z"/>
<path d="M10755 2511 c-12 -20 35 -32 201 -53 79 -10 136 -7 122 7 -2 2 -49 9
-103 16 -54 6 -111 17 -126 25 -32 16 -85 19 -94 5z"/>
<path d="M3870 2494 c0 -8 5 -12 10 -9 6 3 10 10 10 16 0 5 -4 9 -10 9 -5 0
-10 -7 -10 -16z"/>
<path d="M4876 2501 c-6 -10 26 -21 62 -21 25 0 30 15 6 24 -23 9 -62 7 -68
-3z"/>
<path d="M5000 2490 c-13 -8 -12 -10 3 -10 9 0 17 5 17 10 0 12 -1 12 -20 0z"/>
<path d="M9842 2491 c9 -6 57 -15 107 -20 52 -6 100 -16 113 -25 25 -18 48
-21 48 -7 0 21 -102 51 -192 57 -68 4 -88 2 -76 -5z"/>
<path d="M3935 2470 c3 -5 8 -10 11 -10 2 0 4 5 4 10 0 6 -5 10 -11 10 -5 0
-7 -4 -4 -10z"/>
<path d="M4050 2473 c-97 -10 -111 -33 -20 -33 33 0 113 -12 177 -26 167 -37
335 -67 437 -79 26 -2 69 -12 95 -21 25 -9 62 -18 81 -20 19 -3 57 -11 85 -19
27 -8 93 -21 145 -30 157 -27 292 -54 340 -70 25 -8 101 -22 169 -30 68 -9
132 -20 142 -25 16 -9 358 -78 574 -116 50 -9 110 -25 135 -36 26 -12 84 -24
140 -29 52 -5 131 -20 175 -33 44 -14 121 -30 170 -36 134 -17 135 -17 200
-34 33 -8 148 -31 255 -51 107 -20 215 -42 240 -50 58 -18 199 -45 235 -45 15
0 64 -11 109 -24 85 -25 244 -56 288 -56 14 0 48 -7 74 -14 60 -18 414 -86
447 -86 14 0 51 -8 83 -19 33 -10 100 -24 149 -30 81 -11 336 -67 410 -90 17
-5 64 -14 105 -21 41 -6 120 -20 175 -32 55 -11 125 -24 155 -29 30 -4 96 -16
147 -25 100 -18 123 -15 123 14 0 30 -18 39 -116 56 -51 9 -104 20 -118 26
-15 5 -46 10 -69 10 -23 0 -62 7 -86 15 -24 9 -64 18 -90 22 -25 3 -51 9 -57
14 -10 8 -244 53 -439 85 -49 8 -110 21 -135 30 -25 8 -86 19 -135 24 -50 6
-103 15 -120 20 -32 9 -210 44 -285 56 -25 3 -49 10 -55 13 -16 12 -113 30
-216 41 -53 5 -109 16 -125 25 -18 9 -57 15 -106 15 -49 0 -78 4 -80 12 -4 11
-65 23 -248 49 -41 6 -93 17 -115 25 -52 19 -239 54 -286 54 -20 0 -56 7 -80
16 -28 10 -60 13 -86 10 -24 -3 -43 -1 -43 4 0 14 -110 45 -225 65 -55 9 -122
23 -150 30 -27 8 -106 21 -175 30 -69 8 -197 33 -285 55 -88 22 -185 42 -215
46 -30 3 -74 12 -97 20 -37 12 -86 22 -178 37 -11 2 -29 8 -40 14 -11 5 -60
16 -110 22 -49 7 -115 19 -145 26 -30 7 -100 20 -155 30 -141 24 -306 53 -402
72 -45 8 -89 13 -96 10 -8 -3 -43 3 -79 13 -80 22 -243 44 -265 36 -9 -4 -19
-2 -22 3 -4 6 -60 21 -126 35 -66 13 -127 26 -135 28 -8 3 -31 3 -50 1z"/>
<path d="M5068 2465 c-14 -15 4 -25 43 -25 22 0 49 -5 59 -10 11 -6 57 -15
102 -20 87 -11 116 -17 368 -75 85 -19 171 -38 190 -41 19 -3 44 -9 55 -14 21
-9 152 -33 270 -50 39 -6 133 -24 210 -40 77 -17 163 -35 190 -41 28 -6 100
-22 160 -36 61 -13 166 -33 235 -44 69 -11 134 -23 145 -29 21 -9 119 -32 245
-56 41 -8 122 -25 180 -39 108 -26 155 -34 320 -59 52 -8 111 -21 130 -29 19
-8 116 -27 215 -41 99 -15 196 -34 215 -43 35 -15 150 -39 329 -69 52 -8 149
-26 215 -40 67 -14 151 -29 187 -34 36 -5 95 -18 130 -30 58 -19 294 -68 429
-89 172 -28 367 -64 382 -72 9 -5 36 -9 60 -9 24 0 72 -9 106 -20 35 -11 76
-20 90 -20 15 0 54 -9 86 -20 61 -20 121 -26 130 -12 2 4 -3 18 -12 30 -14 17
-42 27 -145 47 -71 14 -155 25 -187 25 -37 0 -62 5 -69 14 -6 8 -42 19 -79 26
-37 7 -91 19 -121 26 -29 7 -58 11 -63 8 -5 -3 -39 3 -76 14 -37 11 -93 25
-125 31 -32 6 -62 13 -66 15 -4 3 -54 12 -111 21 -56 9 -120 23 -142 31 -22 8
-44 12 -48 9 -4 -3 -24 2 -43 10 -19 8 -99 24 -178 35 -79 11 -171 28 -204 36
-118 30 -131 33 -190 44 -33 5 -106 17 -163 25 -56 8 -112 20 -125 27 -12 7
-42 13 -67 13 -25 1 -58 7 -73 14 -16 6 -81 20 -145 32 -64 11 -131 25 -149
30 -18 6 -60 12 -94 14 -34 2 -82 11 -108 20 -40 13 -167 38 -381 75 -30 5
-71 14 -90 20 -19 5 -51 10 -71 10 -20 0 -79 13 -130 29 -135 41 -186 53 -259
61 -36 4 -121 19 -190 33 -127 27 -186 38 -505 102 -99 20 -198 40 -220 46
-78 19 -221 48 -290 58 -38 6 -155 25 -260 41 -241 38 -288 44 -297 35z"/>
<path d="M10118 2463 c7 -3 16 -2 19 1 4 3 -2 6 -13 5 -11 0 -14 -3 -6 -6z"/>
<path d="M10170 2432 c0 -12 22 -17 132 -31 42 -6 123 -22 180 -35 56 -13 141
-30 188 -36 46 -6 92 -16 101 -21 23 -12 96 -12 83 0 -24 24 -423 106 -569
117 -22 2 -57 6 -77 10 -24 4 -38 3 -38 -4z"/>
<path d="M11135 2431 c12 -12 86 -30 164 -38 42 -4 53 -3 49 8 -6 17 -36 25
-138 33 -60 5 -82 4 -75 -3z"/>
<path d="M10895 2300 c-6 -10 16 -17 120 -40 83 -18 130 -10 54 10 -24 6 -55
15 -69 20 -39 13 -99 20 -105 10z"/>
<path d="M11120 2251 c0 -6 5 -13 10 -16 6 -3 10 1 10 9 0 9 -4 16 -10 16 -5
0 -10 -4 -10 -9z"/>
<path d="M10160 2236 c0 -16 111 -44 261 -66 37 -5 82 -16 100 -24 54 -22 160
-39 172 -27 8 8 1 13 -21 17 -18 4 -32 10 -32 15 0 5 -15 9 -33 9 -18 0 -37 4
-42 9 -13 11 -119 31 -166 31 -21 0 -50 5 -66 11 -15 6 -39 12 -53 13 -14 2
-46 6 -72 11 -27 4 -48 4 -48 1z"/>
<path d="M4255 2139 c-99 -3 -200 -7 -225 -8 l-45 -2 45 -15 c25 -8 100 -23
168 -34 129 -21 240 -46 257 -60 6 -4 48 -10 95 -12 47 -3 112 -12 145 -21 63
-16 141 -31 265 -53 41 -7 95 -17 120 -23 25 -5 72 -15 105 -21 104 -19 219
-39 260 -45 22 -4 47 -9 55 -12 8 -4 22 -5 32 -4 9 1 19 -3 23 -9 13 -21 77
-10 141 26 53 29 63 39 53 50 -8 10 -8 14 0 14 6 0 11 4 11 9 0 5 -10 9 -22 9
-33 0 -171 20 -258 38 -41 8 -140 23 -220 34 -80 11 -172 24 -205 30 -33 6
-103 18 -155 27 -52 8 -99 19 -105 23 -13 9 -140 28 -232 34 -43 3 -82 11 -95
20 -12 9 -25 15 -28 14 -3 -1 -86 -5 -185 -9z"/>
<path d="M6378 1717 c-70 -7 -129 -15 -133 -18 -6 -6 51 -18 115 -24 19 -2 76
-13 125 -25 119 -28 114 -27 235 -45 58 -9 175 -29 260 -45 173 -33 305 -57
395 -71 33 -6 74 -17 92 -25 17 -8 42 -14 55 -14 13 0 73 -9 133 -20 60 -11
125 -20 145 -20 63 0 150 54 150 92 0 15 -8 18 -42 18 -24 0 -83 9 -133 19
-49 10 -119 22 -155 26 -36 4 -84 13 -108 21 -23 8 -59 14 -80 14 -20 0 -71 8
-112 17 -84 19 -124 21 -157 10 -19 -7 -25 -4 -33 18 -8 22 -15 26 -33 21 -13
-3 -39 -1 -58 4 -19 5 -77 14 -129 19 -52 6 -124 15 -160 20 -114 17 -241 19
-372 8z"/>
</g>
</svg>
