<?xml version="1.0" standalone="no"?>
<!DOCTYPE svg PUBLIC "-//W3C//DTD SVG 20010904//EN"
 "http://www.w3.org/TR/2001/REC-SVG-20010904/DTD/svg10.dtd">
<svg version="1.0" xmlns="http://www.w3.org/2000/svg"
 width="1280.000000pt" height="800.000000pt" viewBox="0 0 1280.000000 800.000000"
 preserveAspectRatio="xMidYMid meet">
<metadata>
Created by potrace 1.15, written by Peter Selinger 2001-2017
</metadata>
<g transform="translate(0.000000,800.000000) scale(0.100000,-0.100000)"
fill="#ffffff" stroke="none">
<path d="M8710 7073 c-192 -13 -358 -46 -385 -74 -9 -10 -16 -81 -24 -234 -6
-121 -14 -252 -17 -292 l-6 -72 -47 -7 c-122 -18 -270 -71 -368 -133 -56 -34
-59 -55 -34 -211 12 -69 21 -128 21 -132 0 -3 -22 -22 -48 -41 -44 -31 -50
-40 -60 -92 -7 -32 -12 -81 -12 -109 0 -46 4 -54 44 -96 l44 -45 -6 -143 c-6
-124 -9 -145 -25 -154 -59 -32 -126 -108 -179 -203 -67 -119 -73 -150 -82
-390 -4 -88 -11 -236 -16 -330 -6 -93 -15 -429 -20 -745 -6 -316 -13 -662 -17
-767 l-6 -193 38 -90 c35 -84 45 -97 131 -179 74 -70 124 -106 241 -173 582
-336 1471 -394 2042 -134 123 56 142 68 221 143 l86 82 27 98 c17 61 41 204
63 378 19 154 66 503 105 775 39 272 81 601 94 730 14 129 31 282 38 340 l14
105 -49 130 c-69 178 -91 219 -138 252 l-40 28 6 70 c4 39 12 111 18 160 11
89 11 90 48 110 45 24 78 89 85 167 5 52 3 62 -27 107 -17 28 -43 59 -56 68
l-24 18 49 149 49 150 -22 29 c-46 63 -183 136 -341 181 -109 32 -110 32 -108
62 2 16 14 140 28 276 33 328 35 305 -20 329 -94 41 -331 79 -623 99 -139 9
-580 11 -692 3z m-861 -1205 c-1 -19 -2 -19 -6 -5 -5 18 -5 18 -26 0 l-22 -18
19 23 c11 12 23 22 28 22 4 0 7 -10 7 -22z m665 -8 c71 -11 144 -20 162 -20
19 0 34 -5 34 -11 0 -6 -11 -8 -27 -5 -16 3 -53 8 -83 12 -30 4 -64 9 -75 11
-11 1 -38 5 -60 7 -22 2 -47 6 -55 9 -8 3 -22 8 -30 10 -29 10 7 7 134 -13z
m52 -44 c60 -8 155 -17 212 -21 56 -4 102 -11 102 -16 0 -11 134 -4 137 7 2 5
-5 9 -15 9 -9 0 -46 4 -82 8 -36 4 -94 9 -128 12 -35 2 -67 7 -70 11 -4 4 34
4 83 0 223 -17 332 -20 662 -21 193 0 345 -3 338 -8 -7 -4 -22 -6 -32 -5 -57
5 -183 -3 -183 -12 0 -5 21 -10 46 -10 27 0 43 -4 39 -10 -3 -5 1 -10 9 -10 9
0 16 4 16 9 0 5 26 9 58 8 43 0 49 -1 24 -6 -18 -3 -33 -10 -34 -16 -1 -5 -12
-18 -25 -29 -15 -11 -22 -24 -18 -36 3 -10 2 -36 -4 -58 -7 -34 -6 -42 8 -46
18 -5 -11 -2 -194 18 -274 31 -420 39 -727 40 -174 1 -315 3 -313 7 2 3 -1 24
-6 48 -6 29 -6 47 1 56 7 9 4 20 -11 39 -14 18 -17 26 -7 27 7 1 2 5 -12 9
-41 13 3 12 126 -4z m1327 -3 c-7 -2 -19 -2 -25 0 -7 3 -2 5 12 5 14 0 19 -2
13 -5z m526 -66 c0 -8 -2 -8 -6 1 -4 10 -8 10 -21 0 -15 -12 -16 -11 -3 4 14
19 32 15 30 -5z m-1971 -114 c-10 -2 -26 -2 -35 0 -10 3 -2 5 17 5 19 0 27 -2
18 -5z m42 -58 c47 -8 128 -20 180 -26 52 -6 111 -12 130 -14 19 -3 87 -7 150
-10 63 -3 129 -8 145 -10 17 -3 85 -5 153 -6 67 -1 125 -5 128 -10 3 -5 -15
-9 -40 -9 -45 0 -63 -14 -28 -23 11 -3 7 -5 -10 -6 -14 0 -28 3 -30 9 -1 5
-25 12 -53 15 -50 5 -50 5 -20 -9 29 -15 28 -15 -40 -14 -53 0 -63 2 -40 8 24
6 26 8 8 9 -13 0 -23 6 -23 11 0 6 -13 10 -30 10 -16 0 -30 -4 -30 -10 0 -5 7
-10 16 -10 8 0 12 -4 9 -10 -3 -5 -15 -10 -26 -10 -11 0 -18 4 -15 9 4 5 -4 7
-16 3 -14 -3 -19 -1 -14 6 8 13 -25 25 -48 16 -9 -3 -16 -2 -16 4 0 12 -190
20 -235 10 -11 -3 -14 -3 -7 -1 28 10 9 21 -33 19 -25 -2 -45 0 -45 4 0 12
-54 9 -62 -4 -5 -7 -8 -5 -8 7 0 9 -8 17 -17 18 -48 2 -88 10 -94 21 -4 6 -14
8 -24 5 -9 -4 -14 -3 -10 3 3 6 7 10 8 10 1 0 40 -7 87 -15z m1277 -11 c-3 -3
-12 -4 -19 -1 -8 3 -5 6 6 6 11 1 17 -2 13 -5z m-1335 -73 c84 -16 223 -37
308 -46 85 -9 157 -19 159 -21 12 -11 -74 -9 -214 7 -60 7 -125 13 -142 13
-18 1 -33 5 -33 10 0 4 -11 6 -25 4 -13 -3 -26 -1 -27 3 -2 5 -39 16 -83 25
-68 14 -126 33 -103 34 3 0 75 -13 160 -29z m223 11 c-3 -3 -11 0 -18 7 -9 10
-8 11 6 5 10 -3 15 -9 12 -12z m1075 3 c-19 -7 -55 -14 -80 -15 -39 -2 -42 -3
-20 -11 21 -7 19 -8 -10 -4 -19 3 -60 7 -90 11 -102 11 -86 19 50 24 74 3 146
6 160 7 21 1 19 -1 -10 -12z m-970 -11 c0 -2 -9 -4 -21 -4 -11 0 -18 4 -14 10
5 8 35 3 35 -6z m47 0 c-3 -3 -12 -4 -19 -1 -8 3 -5 6 6 6 11 1 17 -2 13 -5z
m-124 -21 c-7 -2 -21 -2 -30 0 -10 3 -4 5 12 5 17 0 24 -2 18 -5z m290 0 c-7
-2 -21 -2 -30 0 -10 3 -4 5 12 5 17 0 24 -2 18 -5z m-185 -10 c-10 -2 -28 -2
-40 0 -13 2 -5 4 17 4 22 1 32 -1 23 -4z m95 -10 c-13 -2 -35 -2 -50 0 -16 2
-5 4 22 4 28 0 40 -2 28 -4z m436 -19 c7 -7 -271 -2 -344 6 -38 3 22 4 135 2
113 -3 207 -6 209 -8z m-933 -8 c44 -8 93 -17 109 -19 17 -3 41 -7 55 -10 14
-4 54 -9 90 -12 145 -14 166 -16 200 -20 183 -21 835 -29 954 -12 42 6 56 6
51 -2 -3 -7 -12 -11 -18 -9 -7 1 -30 -1 -52 -5 -32 -6 -279 -18 -405 -20 -51
-1 -446 14 -460 18 -16 4 -43 7 -245 29 -72 8 -171 24 -219 36 -49 12 -106 23
-127 24 -22 0 -39 4 -39 9 0 10 17 9 106 -7z m1161 7 c-20 -2 -52 -2 -70 0
-17 2 0 4 38 4 39 0 53 -2 32 -4z m328 -4 c-33 -10 -44 -11 -234 -29 -87 -7
-137 -8 -143 -2 -7 7 28 12 99 17 59 3 142 10 183 14 41 5 86 9 100 9 23 0 22
-1 -5 -9z m-518 -5 c-3 -3 -12 -4 -19 -1 -8 3 -5 6 6 6 11 1 17 -2 13 -5z m8
-17 c36 2 37 1 15 -8 -15 -6 -20 -13 -13 -17 6 -4 -9 -8 -33 -9 -24 -1 -44 2
-44 7 0 5 -61 8 -135 7 -74 -1 -135 1 -135 6 0 4 -18 7 -40 5 -23 -1 -45 4
-53 11 -10 11 25 12 193 5 113 -4 223 -7 245 -7z m530 -47 c-3 -5 -12 -10 -18
-10 -7 0 -6 4 3 10 19 12 23 12 15 0z m58 3 c-7 -2 -21 -2 -30 0 -10 3 -4 5
12 5 17 0 24 -2 18 -5z m-913 -133 c91 -5 226 -12 301 -15 76 -3 148 -9 160
-14 13 -6 17 -10 9 -11 -12 0 -12 -2 -2 -9 7 -4 14 -28 15 -52 2 -63 36 -82
56 -31 l11 27 -5 -29 c-6 -27 -4 -28 25 -24 16 3 30 1 30 -3 0 -4 26 -16 58
-26 l57 -18 2 -70 c1 -38 4 -91 8 -116 l6 -47 -68 -15 c-40 -8 -93 -12 -129
-10 -36 3 -70 1 -80 -6 -15 -8 -6 -10 45 -11 l64 0 -24 -21 c-22 -19 -22 -21
-6 -30 9 -6 17 -17 17 -24 0 -8 5 -15 10 -15 6 0 20 -10 31 -21 19 -19 33 -22
103 -22 74 1 77 0 36 -8 -25 -5 -92 -14 -150 -19 -103 -9 -102 -9 51 -5 86 2
162 -1 170 -6 11 -7 10 -9 -6 -10 -11 -1 -23 -1 -27 0 -5 0 -8 -3 -8 -9 0 -5
-6 -7 -14 -4 -8 3 -17 1 -20 -5 -3 -5 -20 -8 -36 -6 -16 2 -32 0 -35 -5 -3 -4
-49 -9 -102 -10 -54 -1 -120 -2 -148 -3 -43 -2 -50 1 -47 16 2 9 -4 20 -12 23
-9 3 -13 10 -10 15 3 5 -15 9 -40 9 -48 0 -70 -20 -64 -58 2 -9 -2 -16 -8 -15
-6 1 -76 5 -155 8 -189 7 -239 11 -329 24 -82 12 -134 19 -195 27 -22 3 -58
10 -80 16 -22 5 -49 12 -60 13 -37 6 -80 16 -120 28 -22 6 -44 11 -50 12 -5 0
-16 4 -22 8 -7 5 -17 5 -23 2 -5 -3 -10 -1 -10 4 0 6 -7 11 -16 11 -8 0 -13 4
-10 9 4 5 0 12 -6 14 -23 10 253 -40 325 -58 16 -4 27 -3 27 3 0 6 -21 13 -47
17 -27 4 -109 22 -183 41 -74 19 -121 32 -105 29 88 -14 185 -17 185 -6 0 6 5
11 11 11 17 0 59 36 51 44 -3 4 1 4 11 0 9 -3 17 -2 17 4 0 5 -7 13 -16 16 -8
3 -12 10 -9 16 7 12 -39 34 -116 55 l-57 16 13 42 c7 23 16 72 19 109 8 67 8
68 44 78 20 6 56 13 80 17 23 3 42 11 42 18 0 6 9 20 19 29 19 17 20 17 23
-11 l3 -28 102 2 c57 1 112 7 123 13 20 11 20 12 3 40 -11 20 -28 32 -50 36
-18 3 -36 11 -40 16 -6 11 26 10 377 -12z m580 -84 c0 -2 -7 -6 -15 -10 -8 -3
-15 -1 -15 4 0 6 7 10 15 10 8 0 15 -2 15 -4z m-1471 -496 c65 -34 605 -125
806 -136 44 -2 123 -6 175 -9 52 -2 107 -5 121 -5 26 0 27 -1 18 -37 -12 -52
-11 -140 1 -148 18 -11 90 -8 105 5 11 9 15 34 15 95 l0 82 68 6 c37 4 96 7
132 7 36 0 116 7 179 15 63 9 116 13 119 10 3 -3 -3 -5 -13 -5 -29 0 -56 -29
-46 -49 5 -9 5 -39 -2 -70 -8 -41 -8 -56 1 -59 28 -9 7 -20 -60 -31 -100 -18
-105 -22 -23 -17 42 2 62 0 50 -5 -11 -4 -16 -8 -11 -8 6 -1 1 -7 -10 -15 -12
-10 -19 -27 -20 -53 -1 -21 -5 -72 -9 -113 -5 -41 -8 -86 -7 -100 1 -14 -3
-38 -8 -55 -8 -26 -17 -95 -23 -184 -1 -14 -10 -27 -21 -31 -14 -4 -16 -9 -8
-14 16 -10 15 -21 -3 -39 -13 -13 -20 -12 -64 11 -49 26 -49 27 -35 54 14 27
13 28 -23 47 -21 10 -55 23 -76 29 -35 10 -39 9 -49 -14 -13 -29 -11 -29 -73
-5 -65 24 -115 33 -115 21 0 -6 6 -10 13 -10 6 0 28 -4 47 -10 34 -9 35 -10
32 -56 -3 -35 -9 -47 -25 -53 -19 -7 -17 -10 17 -36 25 -19 52 -30 78 -31 l41
-2 -33 28 c-27 23 -34 37 -37 74 -3 25 -2 46 1 46 12 0 222 -92 251 -110 30
-19 43 -54 24 -65 -5 -4 -9 -20 -9 -37 0 -23 -4 -29 -15 -24 -15 5 -19 -5 -16
-33 2 -7 -2 -10 -9 -6 -7 4 -4 -4 5 -19 10 -14 22 -26 27 -26 5 0 7 -12 4 -27
-4 -16 -8 -55 -11 -88 -4 -61 -12 -145 -20 -200 -2 -16 -4 -40 -4 -52 -1 -19
-7 -23 -31 -23 -29 0 -29 0 -12 -21 9 -11 40 -32 67 -47 32 -17 44 -27 33 -29
-14 -4 -34 -46 -30 -65 1 -4 -5 -5 -13 -2 -8 4 -12 10 -9 15 3 5 -2 6 -10 3
-17 -6 -76 22 -76 37 0 6 -5 7 -11 4 -14 -10 -139 26 -139 39 0 6 -12 16 -26
23 -21 10 -25 9 -20 -2 5 -13 -26 -13 -64 1 -8 3 -28 7 -45 10 -16 2 -86 12
-155 24 -260 42 -550 42 -795 1 -42 -7 -40 -8 -94 62 -12 15 -12 17 0 12 8 -3
27 6 43 20 27 23 28 25 8 25 -28 0 -30 24 -17 185 3 39 7 101 9 139 3 50 9 72
20 78 9 5 16 14 16 21 0 7 25 28 55 47 65 41 57 52 -11 16 -35 -19 -50 -22
-56 -14 -4 7 0 21 9 30 9 10 12 18 7 18 -5 0 0 8 11 16 l20 16 -20 -6 c-11 -3
-26 -2 -33 3 -10 6 -8 10 8 14 14 4 19 10 14 18 -5 9 -2 10 10 6 9 -4 15 -3
12 2 -11 16 113 56 239 76 55 9 103 19 106 21 4 2 65 6 135 10 71 3 130 7 133
10 2 2 -49 4 -115 4 -144 0 -360 -36 -459 -75 -36 -15 -69 -24 -72 -21 -4 3 0
6 8 6 12 0 12 2 0 9 -11 7 -10 12 8 22 24 16 29 34 6 25 -8 -3 -15 -1 -15 5 0
5 -11 7 -26 3 l-25 -7 6 179 c3 99 8 216 10 260 4 70 1 84 -16 102 l-19 22 47
-6 c47 -5 47 -4 -22 20 -38 13 -62 24 -53 25 12 1 18 14 23 49 14 103 11 115
-27 135 -18 8 -29 16 -25 16 5 1 16 -3 26 -9z m1714 -27 c-7 -2 -21 -2 -30 0
-10 3 -4 5 12 5 17 0 24 -2 18 -5z m-1643 -843 c-8 -5 -19 -10 -25 -10 -5 0
-3 5 5 10 8 5 20 10 25 10 6 0 3 -5 -5 -10z m5 -30 c-27 -12 -43 -12 -25 0 8
5 22 9 30 9 10 0 8 -3 -5 -9z m1471 -102 l19 -23 -25 20 c-14 11 -27 21 -29
22 -2 2 0 3 6 3 5 0 18 -10 29 -22z m-11 -26 c-3 -3 -11 0 -18 7 -9 10 -8 11
6 5 10 -3 15 -9 12 -12z m-11 -677 c-9 -14 -18 -25 -21 -25 -5 0 5 18 20 38
17 22 18 13 1 -13z m-1742 -704 c26 -16 75 -38 110 -49 35 -11 116 -38 181
-61 110 -38 480 -122 530 -120 12 1 72 -3 132 -7 237 -19 559 -1 760 41 138
29 160 31 125 9 l-25 -15 25 7 c14 3 22 3 18 -1 -3 -4 -21 -10 -40 -15 -196
-47 -282 -62 -388 -70 -69 -5 -154 -12 -190 -15 -154 -15 -555 33 -820 99 -93
23 -275 93 -272 105 1 6 -2 11 -8 11 -6 0 -10 -4 -10 -10 0 -6 -10 -5 -25 2
-14 6 -24 17 -21 24 3 7 -1 15 -9 18 -9 3 -12 0 -8 -10 3 -7 1 -14 -3 -14 -12
1 -121 69 -110 70 5 0 3 7 -4 15 -20 24 2 18 52 -14z"/>
<path d="M9046 5792 c-3 -5 4 -12 17 -16 36 -9 107 -7 107 4 0 6 -17 10 -37
10 -21 0 -48 3 -59 6 -12 3 -24 1 -28 -4z"/>
<path d="M9190 5777 c0 -5 29 -7 64 -6 36 2 68 0 72 -4 4 -4 61 -7 127 -7 90
0 118 3 114 13 -3 9 -50 12 -190 12 -103 0 -187 -4 -187 -8z"/>
<path d="M9103 5708 c35 -8 52 -7 60 1 8 8 -5 11 -48 10 l-60 -1 48 -10z"/>
<path d="M8544 4859 c-10 -17 13 -36 27 -22 12 12 4 33 -11 33 -5 0 -12 -5
-16 -11z"/>
<path d="M9730 4840 c0 -5 5 -10 10 -10 6 0 10 5 10 10 0 6 -4 10 -10 10 -5 0
-10 -4 -10 -10z"/>
<path d="M8490 4770 c0 -5 5 -10 10 -10 6 0 10 5 10 10 0 6 -4 10 -10 10 -5 0
-10 -4 -10 -10z"/>
<path d="M9300 4760 c0 -5 19 -10 43 -9 36 1 38 2 17 9 -36 12 -60 12 -60 0z"/>
<path d="M8710 4719 c0 -5 5 -7 10 -4 6 3 10 8 10 11 0 2 -4 4 -10 4 -5 0 -10
-5 -10 -11z"/>
<path d="M9241 4721 c-12 -8 -12 -12 2 -26 10 -9 17 -12 17 -6 0 6 10 11 21
11 18 0 19 2 9 15 -14 17 -29 19 -49 6z"/>
<path d="M9200 4679 c0 -5 5 -7 10 -4 6 3 10 8 10 11 0 2 -4 4 -10 4 -5 0 -10
-5 -10 -11z"/>
<path d="M8558 4633 c7 -3 16 -2 19 1 4 3 -2 6 -13 5 -11 0 -14 -3 -6 -6z"/>
<path d="M8595 4630 c3 -5 8 -10 11 -10 2 0 4 5 4 10 0 6 -5 10 -11 10 -5 0
-7 -4 -4 -10z"/>
<path d="M8638 4623 c7 -3 16 -2 19 1 4 3 -2 6 -13 5 -11 0 -14 -3 -6 -6z"/>
<path d="M8675 4620 c3 -5 11 -10 16 -10 6 0 7 5 4 10 -3 6 -11 10 -16 10 -6
0 -7 -4 -4 -10z"/>
<path d="M8718 4613 c7 -3 16 -2 19 1 4 3 -2 6 -13 5 -11 0 -14 -3 -6 -6z"/>
<path d="M8755 4610 c3 -5 11 -10 16 -10 6 0 7 5 4 10 -3 6 -11 10 -16 10 -6
0 -7 -4 -4 -10z"/>
<path d="M9458 4578 c8 -8 17 -8 34 0 22 10 21 11 -11 11 -27 1 -32 -2 -23
-11z"/>
<path d="M9715 4157 c-4 -10 -5 -21 -1 -24 10 -10 18 4 13 24 -4 17 -4 17 -12
0z"/>
<path d="M9705 4030 c3 -5 8 -10 11 -10 2 0 4 5 4 10 0 6 -5 10 -11 10 -5 0
-7 -4 -4 -10z"/>
<path d="M8449 3738 c-5 -18 -6 -38 -1 -34 7 8 12 36 6 36 -2 0 -4 -1 -5 -2z"/>
<path d="M9508 3694 c2 -13 7 -24 11 -24 11 0 7 39 -5 44 -7 3 -9 -5 -6 -20z"/>
<path d="M9490 3596 c0 -2 13 -6 29 -8 17 -2 28 -1 25 4 -5 8 -54 12 -54 4z"/>
<path d="M9575 3540 c-3 -5 -1 -10 4 -10 6 0 11 5 11 10 0 6 -2 10 -4 10 -3 0
-8 -4 -11 -10z"/>
<path d="M8340 3180 l-35 -7 37 -2 c20 0 40 4 43 9 7 11 7 11 -45 0z"/>
<path d="M8508 3183 c12 -2 30 -2 40 0 9 3 -1 5 -23 4 -22 0 -30 -2 -17 -4z"/>
<path d="M8715 3180 c3 -5 8 -10 11 -10 2 0 4 5 4 10 0 6 -5 10 -11 10 -5 0
-7 -4 -4 -10z"/>
<path d="M8428 3173 c6 -2 18 -2 25 0 6 3 1 5 -13 5 -14 0 -19 -2 -12 -5z"/>
<path d="M8295 3130 c3 -5 8 -10 11 -10 2 0 4 5 4 10 0 6 -5 10 -11 10 -5 0
-7 -4 -4 -10z"/>
<path d="M9250 3120 c0 -5 10 -10 23 -10 12 0 33 -3 47 -5 16 -3 12 0 -10 9
-42 18 -60 19 -60 6z"/>
<path d="M9389 3085 c18 -8 36 -15 40 -15 13 1 -45 29 -59 29 -8 0 0 -6 19
-14z"/>
<path d="M8250 3080 c0 -5 5 -10 10 -10 6 0 10 5 10 10 0 6 -4 10 -10 10 -5 0
-10 -4 -10 -10z"/>
<path d="M9482 3049 c5 -16 68 -25 68 -10 0 6 -9 11 -19 11 -11 0 -27 3 -37 7
-12 4 -15 2 -12 -8z"/>
<path d="M5676 6819 c-119 -10 -209 -26 -258 -46 l-41 -16 6 -238 6 -238 -22
-6 c-122 -34 -160 -52 -207 -95 l-49 -46 26 -158 25 -158 -33 -34 c-33 -35
-34 -37 -34 -123 0 -85 2 -90 33 -125 l32 -37 0 -183 0 -183 -38 -49 c-32 -40
-44 -70 -68 -164 l-30 -115 8 -255 c5 -140 22 -534 38 -875 16 -341 32 -690
36 -775 3 -85 10 -198 14 -252 8 -91 11 -100 50 -158 82 -120 245 -215 450
-261 92 -20 131 -23 310 -23 224 0 321 14 480 71 156 56 330 200 361 300 17
56 49 1332 49 1939 l0 301 -31 104 c-35 116 -66 184 -98 213 -20 18 -21 29
-21 206 0 158 2 190 16 201 28 23 44 67 44 124 0 59 -26 126 -57 143 -15 9
-15 19 -4 118 7 60 17 129 21 154 7 35 5 51 -7 70 -34 52 -102 93 -198 119
l-60 16 -3 230 c-2 193 -5 232 -18 247 -47 51 -442 83 -728 57z m-277 -624 c1
-5 -6 -2 -15 7 -10 9 -13 21 -8 29 5 9 9 8 15 -7 4 -10 8 -23 8 -29z m1028 20
c-4 -8 -11 -15 -17 -15 -7 0 -7 6 0 21 13 23 26 19 17 -6z m-52 -35 c-6 -9
-71 -31 -90 -29 -7 0 71 33 93 38 2 1 1 -3 -3 -9z m-874 -25 c34 -11 37 -14
13 -10 -18 2 -47 11 -65 19 -38 17 -15 13 52 -9z m742 -15 c-46 -19 -272 -33
-446 -27 -159 5 -200 9 -186 20 2 2 36 0 74 -4 81 -9 418 -3 485 9 25 4 56 8
70 9 24 2 24 1 3 -7z m204 -116 c-3 -3 -12 -4 -19 -1 -8 3 -5 6 6 6 11 1 17
-2 13 -5z m-114 -114 c5 -19 1 -20 -41 -20 -26 1 -81 -3 -122 -9 -41 -5 -179
-10 -306 -10 -223 -1 -254 3 -254 31 0 4 93 7 208 6 196 -1 482 9 491 18 10 9
19 3 24 -16z m-779 -6 c9 -8 16 -17 16 -20 0 -2 -28 -3 -62 -3 -49 1 -56 3
-33 9 l30 7 -25 11 c-23 10 -22 11 17 11 25 1 48 -5 57 -15z m829 -11 c-7 -2
-19 -2 -25 0 -7 3 -2 5 12 5 14 0 19 -2 13 -5z m-101 -44 c37 -7 65 -15 63
-19 -2 -4 -5 -23 -7 -43 -1 -22 -7 -37 -15 -37 -13 0 -16 -14 -15 -82 0 -36
-2 -38 -34 -38 -23 0 -32 -4 -28 -13 3 -10 -5 -12 -32 -9 -30 4 -36 2 -31 -11
10 -26 -164 -32 -555 -18 -15 0 -29 5 -32 10 -3 4 -18 7 -33 5 -16 -2 -22 -1
-15 2 18 8 15 21 -7 27 -14 3 -21 18 -26 57 -4 30 -16 62 -26 74 -11 11 -19
28 -19 37 0 10 -3 24 -6 33 -5 13 3 16 52 16 41 0 54 3 44 10 -22 14 639 13
722 -1z m-612 -298 c148 -9 396 -6 525 7 98 10 112 10 135 -6 l25 -17 -22 -3
c-13 -2 -23 -7 -23 -12 0 -5 -7 -6 -17 -3 -12 5 -14 3 -8 -8 5 -8 0 -7 -12 4
-17 15 -21 16 -26 3 -4 -9 -14 -12 -26 -9 -12 3 -21 1 -21 -4 0 -5 -19 -8 -42
-6 -23 1 -46 -1 -51 -4 -17 -10 -447 -10 -447 0 0 5 -9 7 -21 4 -12 -3 -22 0
-26 9 -3 8 -9 14 -15 14 -5 0 -7 -4 -3 -9 3 -5 1 -12 -5 -16 -5 -3 -10 -1 -10
6 0 6 -8 9 -20 6 -11 -3 -23 -1 -26 4 -3 5 -11 9 -17 7 -7 -1 -27 2 -45 6 -25
6 -30 11 -23 20 6 7 7 16 3 21 -4 4 20 4 53 0 33 -4 107 -10 165 -14z m-270
-50 c36 -5 82 -13 104 -16 l38 -6 -23 -25 c-27 -29 -40 -29 -137 -6 -66 15
-73 19 -69 39 2 12 -1 25 -7 28 -6 2 -2 3 9 1 11 -2 49 -9 85 -15z m1065 4
c-22 -8 -34 -14 -27 -14 26 -2 -23 -38 -66 -48 -40 -10 -43 -10 -62 17 l-20
28 31 6 c47 9 79 7 79 -5 0 -5 5 -7 10 -4 6 4 8 10 5 15 -3 5 9 11 27 13 59 7
64 5 23 -8z m-278 -43 c-17 -3 -16 -5 3 -22 21 -18 21 -18 -37 -27 -73 -10
-509 -11 -519 0 -4 4 -2 13 4 19 16 16 15 26 -4 30 -9 2 116 3 277 3 162 0
286 -1 276 -3z m119 -114 c0 -10 -5 -18 -11 -19 -5 0 6 -7 25 -15 21 -9 25
-12 10 -9 -31 7 -287 33 -315 33 -144 -3 -395 -20 -450 -32 -48 -10 -65 -11
-54 -3 11 8 14 19 9 32 -7 20 -2 20 309 25 483 8 477 8 477 -12z m-261 -118
c8 -38 0 -50 -33 -50 -21 0 -24 -2 -12 -10 20 -13 -132 -13 -174 -1 -17 6 -46
14 -65 18 -43 10 -51 30 -17 43 14 5 26 11 26 12 0 2 -21 2 -47 1 l-48 -1 45
7 c25 5 107 9 182 9 l136 2 7 -30z m79 22 c3 -5 -8 -6 -24 -4 -28 4 -29 3 -23
-31 3 -19 1 -37 -3 -40 -5 -3 -10 15 -10 39 -1 42 0 44 27 44 15 0 30 -4 33
-8z m13 -54 c-3 -8 -6 -5 -6 6 -1 11 2 17 5 13 3 -3 4 -12 1 -19z m-416 -25
c13 -16 12 -17 -3 -4 -10 7 -18 15 -18 17 0 8 8 3 21 -13z m46 -19 c-3 -3 -12
-4 -19 -1 -8 3 -5 6 6 6 11 1 17 -2 13 -5z m323 -24 c116 -17 140 -22 140 -31
0 -6 9 -5 20 1 17 9 23 4 50 -50 17 -33 35 -60 40 -60 6 0 10 -6 10 -13 0 -7
-23 -20 -50 -30 -57 -20 -58 -32 -4 -35 21 -2 40 -5 43 -8 2 -2 4 -27 2 -55
-2 -50 -1 -51 23 -47 15 3 26 2 27 -1 0 -3 2 -18 4 -33 4 -30 -2 -37 -42 -44
-15 -3 -34 -9 -42 -15 -18 -11 23 -5 76 10 37 11 46 5 33 -20 -6 -10 -7 -41
-4 -69 5 -40 3 -55 -11 -70 -9 -10 -14 -24 -10 -29 3 -6 3 -17 -2 -23 -4 -7
-9 -143 -10 -303 -1 -159 -3 -308 -4 -331 -2 -22 1 -45 5 -52 4 -7 2 -10 -6
-7 -10 4 -13 -23 -13 -127 0 -73 -3 -155 -7 -182 -8 -47 -6 -52 24 -85 l33
-36 -35 31 c-19 17 -43 34 -52 37 -14 5 -16 11 -9 30 6 16 6 28 -2 36 -18 18
-36 12 -43 -15 -6 -22 -11 -25 -33 -20 l-26 7 25 -21 c14 -11 30 -20 36 -20
16 0 24 -34 24 -102 0 -62 12 -100 44 -135 13 -15 15 -23 7 -23 -11 0 -11 -3
0 -17 13 -15 12 -15 -8 -5 -30 17 -37 -6 -10 -36 16 -17 20 -33 18 -72 -2 -46
-1 -50 29 -65 29 -15 31 -20 26 -48 -3 -17 -8 -32 -10 -34 -2 -3 -22 1 -44 7
-38 12 -39 13 -32 46 5 22 4 37 -5 44 -15 12 -25 3 -25 -24 -1 -48 -10 -50
-126 -31 -107 17 -290 17 -425 -1 -45 -6 -47 -5 -57 26 -9 25 -16 31 -34 28
-20 -3 -23 -8 -20 -39 2 -27 -2 -38 -15 -44 -30 -12 -128 -34 -132 -29 -2 2 1
4 7 4 16 0 16 47 0 52 -6 2 6 12 27 22 28 14 34 20 24 27 -12 7 -12 9 0 9 10
0 12 20 6 104 -4 60 -3 112 3 122 5 11 17 34 26 52 13 24 14 32 4 30 -9 -2
-14 10 -15 37 -1 22 -2 46 -2 53 -1 19 -22 14 -50 -10 l-26 -23 23 26 c21 24
22 32 16 115 -7 111 -6 162 6 185 15 28 11 36 -7 14 l-16 -20 8 20 c16 41 16
62 3 76 -8 8 -15 21 -16 29 0 8 -6 78 -12 155 -7 77 -12 224 -12 327 0 106 -3
190 -9 193 -5 4 -9 15 -9 26 0 11 -7 22 -15 25 -11 5 -15 21 -15 59 0 30 -4
65 -10 79 -9 24 -7 26 17 26 25 0 26 1 8 14 -16 12 -29 65 -15 64 26 -2 31 5
10 15 l-25 11 31 3 c25 3 34 12 48 44 15 34 23 40 58 45 45 8 36 19 -24 29
-53 9 -66 29 -29 45 17 7 30 15 29 19 -4 18 16 81 26 82 6 0 2 4 -8 8 -12 5
26 13 105 24 68 9 135 19 149 21 51 7 227 5 290 -4z m271 -1727 c13 -14 18
-23 12 -19 -19 10 -41 -40 -25 -56 15 -15 16 -31 1 -22 -8 5 -10 -1 -7 -20 3
-15 2 -24 -2 -19 -11 11 -21 163 -12 163 5 0 19 -12 33 -27z m-468 -460 c-7
-2 -21 -2 -30 0 -10 3 -4 5 12 5 17 0 24 -2 18 -5z m204 1 c-3 -3 -12 -4 -19
-1 -8 3 -5 6 6 6 11 1 17 -2 13 -5z m363 -537 c-15 -7 -24 -19 -22 -28 4 -22
-48 -42 -178 -67 -266 -52 -500 -45 -775 24 -24 6 -25 7 -8 21 10 8 12 11 4 7
-9 -4 -12 -3 -7 4 3 6 -9 15 -30 22 -19 7 -33 14 -31 16 3 3 22 -2 43 -10 84
-34 328 -70 459 -69 48 0 248 14 254 17 3 2 29 7 56 10 72 10 164 32 205 50
41 18 67 20 30 3z m15 -37 c-3 -5 -11 -10 -16 -10 -6 0 -7 5 -4 10 3 6 11 10
16 10 6 0 7 -4 4 -10z"/>
<path d="M5583 5807 c4 -10 7 -25 7 -33 0 -8 5 -14 10 -14 16 0 11 36 -7 51
-15 12 -16 12 -10 -4z"/>
<path d="M5610 5679 c0 -5 5 -7 10 -4 6 3 10 8 10 11 0 2 -4 4 -10 4 -5 0 -10
-5 -10 -11z"/>
<path d="M5578 5613 c7 -3 16 -2 19 1 4 3 -2 6 -13 5 -11 0 -14 -3 -6 -6z"/>
<path d="M6365 4780 c3 -5 8 -10 11 -10 2 0 4 5 4 10 0 6 -5 10 -11 10 -5 0
-7 -4 -4 -10z"/>
<path d="M6260 4699 c0 -5 5 -7 10 -4 6 3 10 8 10 11 0 2 -4 4 -10 4 -5 0 -10
-5 -10 -11z"/>
<path d="M5685 4680 c3 -5 10 -10 16 -10 5 0 9 5 9 10 0 6 -7 10 -16 10 -8 0
-12 -4 -9 -10z"/>
<path d="M6080 4680 c0 -5 7 -10 15 -10 8 0 15 5 15 10 0 6 -7 10 -15 10 -8 0
-15 -4 -15 -10z"/>
<path d="M5808 4673 c7 -3 16 -2 19 1 4 3 -2 6 -13 5 -11 0 -14 -3 -6 -6z"/>
<path d="M5968 4673 c7 -3 16 -2 19 1 4 3 -2 6 -13 5 -11 0 -14 -3 -6 -6z"/>
<path d="M5801 4033 c0 -5 4 -17 9 -28 8 -18 9 -17 9 8 1 15 -3 27 -9 27 -5 0
-10 -3 -9 -7z"/>
<path d="M5811 3583 c0 -10 4 -27 9 -38 7 -17 9 -15 9 12 1 17 -3 35 -9 38 -5
3 -10 -2 -9 -12z"/>
<path d="M6088 3478 c2 -24 9 -47 14 -53 7 -7 9 -2 4 15 -3 14 -6 37 -6 53 0
15 -3 27 -8 27 -4 0 -6 -19 -4 -42z"/>
<path d="M6330 3416 c0 -2 8 -10 18 -17 15 -13 16 -12 3 4 -13 16 -21 21 -21
13z"/>
<path d="M3060 4661 c-99 -22 -171 -48 -235 -85 -66 -39 -79 -65 -77 -146 l3
-68 -38 -23 c-135 -82 -174 -153 -139 -249 12 -31 11 -40 -6 -73 -27 -54 -17
-138 23 -189 34 -43 35 -56 10 -100 -11 -18 -33 -69 -50 -112 -34 -88 -34 -44
3 -391 9 -77 29 -237 45 -355 16 -118 37 -280 47 -360 14 -126 20 -151 46
-191 37 -60 113 -110 219 -145 77 -25 98 -27 249 -28 140 -1 179 2 260 22 359
87 523 186 559 337 32 132 32 139 16 370 -8 127 -17 271 -20 320 -15 256 -38
496 -51 544 -18 60 -75 155 -103 170 -23 13 -32 63 -15 86 33 45 20 181 -20
214 -9 8 -12 26 -9 56 3 24 3 55 -1 69 -10 40 -65 84 -143 114 l-71 27 -7 61
c-7 71 -25 94 -95 120 -70 26 -291 29 -400 5z m723 -481 c3 -11 1 -18 -4 -14
-5 3 -9 12 -9 20 0 20 7 17 13 -6z m-436 -156 c-3 -3 -12 -4 -19 -1 -8 3 -5 6
6 6 11 1 17 -2 13 -5z m-752 -13 c3 -5 1 -12 -5 -16 -5 -3 -10 1 -10 9 0 18 6
21 15 7z m548 -18 c-7 -2 -19 -2 -25 0 -7 3 -2 5 12 5 14 0 19 -2 13 -5z m197
-12 c0 -11 -210 -45 -236 -38 -11 3 -5 5 16 6 27 1 205 34 218 40 1 0 2 -3 2
-8z m43 -28 c-4 -10 -2 -14 5 -9 6 3 14 1 18 -5 4 -8 3 -9 -4 -5 -7 4 -12 1
-12 -8 0 -9 6 -16 13 -17 23 -1 -68 -38 -95 -39 -16 0 -28 -4 -28 -8 0 -13 30
-11 84 4 27 8 51 12 53 10 5 -5 -78 -34 -121 -42 -34 -6 -38 -5 -33 10 7 18 6
19 -17 10 -9 -3 -16 -12 -16 -20 0 -8 -8 -14 -17 -15 -10 0 -53 -4 -95 -7 -42
-4 -75 -5 -72 -1 2 3 35 9 74 13 38 4 70 12 70 17 0 10 -76 6 -136 -6 -18 -4
-20 0 -18 30 2 24 -2 38 -14 44 -13 8 -3 10 38 11 54 0 300 36 309 45 11 11
20 4 14 -12z m111 -301 c3 -13 12 -32 20 -41 19 -21 20 -31 5 -31 -7 0 -18 -8
-26 -17 -8 -10 -11 -12 -8 -5 8 16 -27 52 -49 52 -18 0 -40 -36 -31 -50 8 -13
45 -13 45 0 0 6 5 10 11 10 7 0 9 -10 5 -26 -5 -20 -2 -32 15 -47 18 -17 22
-18 16 -4 -8 21 6 22 27 2 16 -17 36 -20 36 -6 0 5 -6 12 -12 15 -7 4 -2 4 11
2 13 -3 34 -1 47 4 13 5 24 7 24 5 0 -9 -78 -43 -162 -71 -49 -15 -88 -32 -88
-37 0 -4 3 -6 8 -4 4 2 48 17 97 32 50 16 95 31 100 35 6 4 19 10 30 13 17 6
17 4 -4 -13 -21 -18 -22 -24 -12 -46 16 -36 14 -42 -16 -58 -16 -8 -24 -15
-19 -16 5 0 3 -6 -3 -14 -6 -8 -11 -18 -10 -22 5 -28 -3 -54 -16 -54 -8 0 -15
-5 -15 -11 0 -6 8 -8 19 -4 25 7 32 -5 37 -63 2 -26 7 -63 10 -82 3 -19 7 -62
9 -97 2 -34 6 -71 10 -82 9 -28 -11 -60 -33 -54 -20 5 -24 43 -7 55 7 5 7 8 0
8 -20 0 -34 -16 -32 -35 2 -18 -10 -21 -108 -36 -60 -9 -126 -19 -145 -23 -38
-6 -187 -55 -233 -77 -24 -11 -30 -11 -38 2 -5 8 -9 17 -9 20 0 16 264 109
311 109 11 0 19 3 19 8 0 4 -37 4 -82 0 -46 -3 -100 -7 -121 -7 l-39 -1 5 40
c2 22 10 47 17 55 16 19 31 95 19 95 -5 0 -9 9 -9 20 0 27 -22 25 -58 -5 -32
-27 -48 -33 -36 -13 5 8 2 9 -11 4 -17 -6 -17 -1 -12 71 4 43 3 83 -1 90 -4 6
-23 14 -43 18 -31 6 -35 10 -32 30 7 32 -13 65 -40 66 -20 1 -20 2 -2 6 11 3
23 10 27 17 6 8 8 8 8 -1 0 -31 346 -18 433 17 20 8 21 9 2 9 -11 0 -57 -5
-103 -13 -92 -15 -255 -21 -295 -10 -38 9 -23 24 24 24 22 0 50 5 62 12 12 7
32 11 45 9 18 -2 22 2 22 23 0 23 -4 26 -37 26 -21 0 -55 3 -77 7 l-38 6 6 46
c4 25 10 67 15 93 7 43 6 47 -13 50 -12 2 35 7 104 10 124 7 290 35 366 61
l39 14 7 -46 c5 -25 10 -57 12 -69z m213 -1340 c-23 -26 -183 -87 -290 -112
-161 -37 -425 -36 -487 1 -10 6 -3 7 20 4 51 -9 194 -23 200 -20 3 2 46 6 95
10 141 10 378 75 450 122 27 18 31 16 12 -5z"/>
<path d="M3371 3684 c0 -11 3 -14 6 -6 3 7 2 16 -1 19 -3 4 -6 -2 -5 -13z"/>
<path d="M3195 3540 c-3 -5 -1 -10 4 -10 6 0 11 5 11 10 0 6 -2 10 -4 10 -3 0
-8 -4 -11 -10z"/>
<path d="M3380 3510 c0 -5 4 -10 9 -10 6 0 13 5 16 10 3 6 -1 10 -9 10 -9 0
-16 -4 -16 -10z"/>
<path d="M3320 3501 c0 -5 9 -7 20 -4 11 3 20 7 20 9 0 2 -9 4 -20 4 -11 0
-20 -4 -20 -9z"/>
<path d="M3454 3465 c-20 -15 -11 -18 20 -6 11 4 15 10 9 14 -5 3 -19 0 -29
-8z"/>
<path d="M3206 3455 c4 -8 10 -12 15 -9 11 6 2 24 -11 24 -5 0 -7 -7 -4 -15z"/>
<path d="M3494 3405 c21 -16 32 -13 21 4 -3 6 -14 11 -23 11 -15 -1 -15 -2 2
-15z"/>
<path d="M3540 3231 c0 -5 -3 -16 -6 -25 -3 -9 -1 -16 5 -16 6 0 11 7 11 16 0
8 4 12 10 9 6 -3 7 1 4 9 -7 17 -24 22 -24 7z"/>
<path d="M3350 2910 c-11 -7 -6 -10 22 -10 20 0 40 5 43 10 8 13 -45 13 -65 0z"/>
</g>
</svg>
