<?xml version="1.0" standalone="no"?>
<!DOCTYPE svg PUBLIC "-//W3C//DTD SVG 20010904//EN"
 "http://www.w3.org/TR/2001/REC-SVG-20010904/DTD/svg10.dtd">
<svg version="1.0" xmlns="http://www.w3.org/2000/svg"
 width="1280.000000pt" height="1179.000000pt" viewBox="0 0 1280.000000 1179.000000"
 preserveAspectRatio="xMidYMid meet">
<metadata>
Created by potrace 1.15, written by Peter Selinger 2001-2017
</metadata>
<g transform="translate(0.000000,1179.000000) scale(0.100000,-0.100000)"
fill="#00bcd4" stroke="none">
<path d="M2394 11776 c-117 -34 -203 -84 -434 -254 -399 -295 -584 -490 -660
-699 -28 -79 -25 -202 7 -273 11 -25 120 -164 242 -309 121 -146 221 -267 221
-270 -1 -3 -33 -31 -72 -61 -86 -67 -153 -145 -215 -252 -65 -114 -67 -114
-286 -121 -213 -6 -290 -22 -436 -92 -315 -152 -562 -422 -685 -747 -32 -88
-66 -234 -69 -305 l-2 -60 709 -899 c390 -494 714 -899 720 -898 14 1 373 277
399 307 16 18 17 39 15 206 l-3 187 37 74 c41 83 137 190 223 246 98 64 210
74 344 31 172 -56 299 -56 417 -2 44 21 84 53 159 130 108 111 167 198 191
285 28 100 45 140 90 200 52 71 70 81 93 53 46 -58 2584 -2823 2591 -2823 5 0
41 16 81 35 113 54 182 44 234 -32 38 -56 34 -99 -20 -197 -25 -46 -45 -94
-45 -106 0 -39 41 -111 74 -131 46 -28 103 -24 169 11 31 16 66 30 77 30 31 0
108 -77 121 -120 12 -41 8 -54 -58 -162 l-35 -56 177 -212 c135 -161 181 -210
193 -205 79 31 177 58 223 62 48 5 60 2 78 -16 27 -27 27 -52 -4 -157 -53
-183 -18 -312 100 -365 80 -37 178 -18 323 62 l74 41 69 -47 c71 -48 179 -157
236 -237 l32 -45 -44 -61 c-182 -250 -383 -613 -450 -814 -160 -478 -117
-1070 110 -1543 143 -298 351 -521 680 -730 110 -69 356 -191 485 -238 537
-199 1117 -248 1645 -138 316 67 701 250 1008 483 654 494 1137 1218 1253
1878 28 159 26 481 -5 653 -112 635 -431 1139 -886 1400 -223 128 -538 222
-878 261 -322 38 -666 47 -827 21 -189 -31 -507 -125 -765 -226 -68 -26 -112
-38 -126 -34 -24 8 -377 355 -403 397 -17 25 -16 30 9 109 71 227 55 350 -55
407 -43 23 -51 24 -208 18 -89 -3 -169 -3 -177 1 -23 8 -45 57 -45 100 0 43
44 142 83 189 l26 31 -185 201 -186 200 -124 -61 c-148 -72 -217 -85 -253 -46
-31 33 -27 59 30 172 41 84 50 109 46 140 -15 112 -106 149 -274 111 -82 -18
-114 -10 -143 38 -31 50 -26 97 16 158 19 28 33 57 31 63 -3 7 -1056 1126
-2340 2487 -2425 2572 -2368 2512 -2487 2556 -63 22 -193 27 -256 10z m8558
-8455 c137 -36 192 -72 300 -198 145 -168 177 -243 158 -370 -34 -222 -164
-472 -338 -648 -244 -248 -644 -482 -932 -545 -424 -94 -938 72 -1083 348 -49
93 -67 174 -67 308 0 250 74 393 332 640 150 142 269 227 442 314 287 145 491
183 931 175 141 -3 197 -8 257 -24z"/>
</g>
</svg>
