<?xml version="1.0" standalone="no"?>
<!DOCTYPE svg PUBLIC "-//W3C//DTD SVG 20010904//EN"
 "http://www.w3.org/TR/2001/REC-SVG-20010904/DTD/svg10.dtd">
<svg version="1.0" xmlns="http://www.w3.org/2000/svg"
 width="779.000000pt" height="1280.000000pt" viewBox="0 0 779.000000 1280.000000"
 preserveAspectRatio="xMidYMid meet">
<metadata>
Created by potrace 1.15, written by Peter Selinger 2001-2017
</metadata>
<g transform="translate(0.000000,1280.000000) scale(0.100000,-0.100000)"
fill="#009688" stroke="none">
<path d="M3640 12723 c-74 -42 -142 -75 -150 -75 -8 0 -80 28 -160 61 -145 61
-170 69 -170 52 0 -5 -18 -51 -39 -102 l-39 -94 -43 88 c-24 48 -47 87 -51 87
-5 0 -80 -36 -169 -80 l-160 -81 -180 17 c-99 9 -182 14 -186 11 -3 -4 -10
-53 -15 -109 -6 -57 -12 -105 -14 -107 -1 -2 -54 32 -116 76 -62 44 -118 82
-125 86 -10 7 -90 -89 -82 -98 2 -2 80 -22 173 -45 l169 -42 126 22 c69 12
132 24 141 27 8 3 -43 -27 -115 -66 -71 -39 -135 -70 -142 -71 -7 0 -11 12
-10 28 l2 27 -85 6 c-47 4 -137 9 -201 13 l-117 6 -7 -148 c-4 -81 -8 -167 -9
-192 l-1 -45 53 -3 52 -3 -47 -62 c-27 -34 -49 -55 -50 -47 -1 8 -5 36 -8 63
l-6 47 -89 0 -89 0 15 43 c8 23 30 101 49 172 l34 130 -45 45 -44 45 -140
-140 c-103 -103 -138 -144 -134 -157 4 -15 -1 -18 -28 -18 -18 0 -50 -3 -71
-6 l-37 -7 2 -50 3 -51 -130 -34 c-71 -19 -131 -35 -132 -36 -1 -1 19 -78 43
-171 46 -172 49 -211 20 -250 -12 -17 -17 -14 -79 34 -37 29 -67 56 -67 59 0
4 9 61 20 126 11 66 19 121 17 122 -1 2 -32 -20 -67 -47 -36 -28 -74 -57 -84
-65 -20 -13 -20 -14 3 -46 13 -18 18 -27 10 -20 -7 6 -16 12 -20 12 -3 0 -57
-67 -119 -150 -82 -109 -119 -150 -134 -150 -42 0 -46 -11 -30 -83 9 -38 14
-70 12 -72 -1 -2 -54 -8 -116 -13 -63 -6 -116 -13 -119 -16 -3 -3 0 -65 6
-138 19 -221 22 -238 38 -238 11 0 -35 -42 -197 -177 -2 -2 9 -43 25 -91 l30
-87 5 69 5 70 58 -71 c53 -66 57 -73 46 -97 -15 -32 -25 -32 -72 0 -21 14 -40
24 -41 22 -8 -8 -176 -305 -181 -320 -5 -12 2 -21 24 -32 l30 -16 47 54 47 53
99 -59 c54 -33 98 -62 98 -65 0 -3 -24 -3 -54 1 l-53 6 -7 -53 c-3 -28 -6 -74
-6 -101 0 -70 -10 -51 -27 51 -7 48 -16 89 -19 92 -6 7 -147 -18 -156 -27 -3
-4 6 -70 22 -147 43 -218 43 -215 27 -215 -11 0 -16 -36 -21 -186 -4 -102 -6
-187 -4 -189 2 -2 39 -5 83 -6 l80 -4 5 79 5 78 33 -86 32 -87 -30 -59 c-17
-33 -32 -60 -35 -60 -3 0 5 20 17 45 22 45 19 75 -8 81 -5 1 -66 -59 -136
-135 l-127 -136 47 -47 c25 -27 49 -48 53 -48 4 0 24 26 45 59 l38 58 65 -38
c36 -20 66 -43 65 -51 -1 -7 -25 -88 -54 -180 -30 -93 -52 -169 -49 -171 16
-13 374 -116 379 -110 19 21 38 105 33 145 l-5 43 71 -70 c39 -38 70 -73 69
-76 -2 -4 -38 -48 -82 -99 l-78 -92 -32 30 c-36 35 -166 132 -176 132 -4 0 33
-267 39 -276 1 0 52 7 113 16 l113 18 72 -60 72 -60 -14 -29 c-8 -15 -15 -33
-15 -38 0 -6 54 -38 120 -71 66 -33 120 -58 120 -54 0 3 -20 37 -45 76 l-46
70 67 79 c37 43 69 79 71 79 3 0 3 -21 1 -47 l-3 -48 105 -6 c58 -4 123 -7
145 -8 37 -2 32 -4 -50 -30 -75 -23 -212 -76 -223 -86 -4 -3 118 -205 124
-205 2 0 65 36 139 80 165 99 164 98 158 66 -4 -20 0 -26 18 -31 129 -30 363
-74 368 -69 9 8 51 216 46 225 -3 4 -27 12 -55 19 -27 7 -50 16 -50 22 0 5 17
34 38 63 l39 54 97 -65 96 -65 -64 -79 c-93 -113 -91 -108 -50 -169 22 -33 39
-49 47 -44 54 32 317 216 317 222 0 4 -18 33 -40 65 -22 31 -40 61 -40 67 0 6
12 27 26 47 l25 37 -3 -52 c-4 -61 -1 -63 105 -63 37 0 67 -3 67 -6 0 -3 -29
-38 -65 -77 -36 -39 -65 -74 -65 -78 0 -7 187 52 209 65 6 4 4 20 -5 41 -8 19
-14 37 -14 41 0 4 38 4 83 0 l84 -7 6 87 c3 48 8 88 10 91 3 2 31 -8 63 -22
31 -14 61 -22 65 -18 15 15 90 196 84 202 -4 3 -50 -17 -103 -44 -53 -28 -99
-51 -103 -53 -4 -2 -4 27 -1 64 6 80 2 84 -90 84 -38 0 -68 3 -68 8 0 4 47 26
104 50 l105 43 -39 92 c-21 51 -48 114 -59 140 -12 27 -21 51 -21 53 0 2 14 4
30 4 28 0 30 3 30 35 l0 35 62 -31 61 -31 -38 -21 -37 -22 6 -80 c7 -90 38
-246 58 -293 l13 -30 138 81 c75 45 137 85 137 88 0 4 -29 55 -64 115 l-64
107 75 156 c41 86 77 162 80 169 3 7 -25 27 -78 52 -71 34 -78 40 -46 36 20
-3 37 -1 37 4 0 4 12 88 26 185 20 140 23 180 13 186 -7 4 -43 10 -81 14 -37
4 -71 11 -74 16 -3 5 35 59 85 119 50 60 91 113 91 118 0 4 -52 50 -115 101
-64 52 -120 101 -124 110 -5 9 -12 40 -16 69 l-7 53 -42 -6 -41 -6 -84 123
c-46 68 -92 133 -101 145 l-17 21 -134 -93 -134 -93 -26 25 -27 25 44 81 c24
45 44 87 44 92 0 10 -328 185 -347 185 -5 0 -15 -12 -22 -26 -11 -25 -8 -31
47 -98 32 -39 62 -77 66 -84 9 -15 -173 -217 -185 -205 -4 4 -19 36 -33 71
l-25 63 22 8 c12 5 37 12 54 16 18 3 33 10 33 13 -1 4 -20 86 -45 182 l-43
175 -34 -2 -33 -1 35 30 c19 17 54 49 78 70 l43 39 -28 33 c-15 19 -56 65 -90
104 l-63 69 76 66 76 65 135 -85 c74 -46 136 -83 137 -81 17 24 167 268 171
279 5 13 -6 14 -87 6 -51 -5 -149 -6 -218 -3 l-125 5 -62 68 c-34 37 -62 71
-63 76 0 4 25 7 55 7 l55 0 0 45 0 45 115 -90 c63 -49 116 -90 118 -90 3 0 42
48 87 106 l83 106 44 -93 c24 -51 49 -96 55 -100 8 -5 4 -18 -10 -44 -12 -20
-22 -39 -22 -42 0 -2 37 29 83 70 59 54 105 86 161 111 89 41 96 42 96 19 0
-14 13 -15 122 -10 66 4 156 7 199 7 l78 0 3 42 3 43 69 -88 c44 -56 73 -84
80 -79 6 5 60 48 120 95 l108 87 17 -22 c13 -17 135 -189 146 -206 1 -1 16 5
32 15 29 16 32 16 94 -11 35 -16 71 -31 79 -33 8 -3 -9 19 -38 49 l-54 55 79
56 c43 30 81 52 85 49 3 -4 21 -42 39 -85 37 -90 17 -89 196 -11 l123 53 97
-29 c95 -27 97 -28 68 -40 -133 -51 -190 -78 -186 -91 2 -8 5 -21 8 -30 3 -12
-4 -18 -27 -23 -47 -9 -243 -7 -325 4 -38 5 -70 8 -71 7 -4 -5 186 -287 193
-287 4 0 69 40 143 90 74 49 135 88 136 87 1 -1 15 -35 32 -76 l29 -74 -32
-131 c-18 -72 -35 -143 -39 -157 l-6 -27 170 -42 c94 -23 173 -41 175 -39 2 3
-26 65 -63 139 -71 142 -108 239 -95 250 5 4 61 28 126 54 l119 47 54 -32 c30
-17 54 -35 52 -39 -2 -5 -46 -48 -98 -95 -52 -48 -96 -91 -98 -95 -1 -4 40
-53 92 -109 l95 -103 -51 -41 -51 -40 -41 15 c-23 9 -50 19 -60 24 -15 6 -11
-3 14 -35 33 -41 34 -43 16 -57 -22 -16 -30 -2 97 -167 l88 -114 -50 -134
c-37 -98 -47 -135 -38 -141 7 -4 40 -17 74 -29 62 -20 89 -39 59 -39 -14 0
-16 -24 -16 -184 0 -119 -4 -186 -10 -188 -9 -3 -39 -281 -40 -359 0 -9 13
-20 30 -25 30 -9 29 -10 -70 -63 -55 -30 -100 -57 -100 -61 0 -4 33 -68 74
-143 l73 -136 -26 -5 c-14 -3 -44 -8 -66 -12 -22 -4 -43 -8 -46 -10 -3 -2 8
-86 25 -186 30 -171 33 -183 55 -188 19 -4 11 -10 -43 -29 -36 -13 -66 -25
-66 -27 0 -2 27 -76 60 -166 33 -89 60 -165 60 -169 0 -7 -104 -69 -116 -69
-3 0 -3 9 1 20 3 10 -1 32 -9 48 -13 26 -13 30 1 45 14 14 12 27 -25 144 -23
70 -49 158 -59 196 -10 37 -21 67 -26 67 -9 0 -190 -157 -195 -169 -1 -4 38
-53 88 -109 49 -56 90 -103 90 -104 0 -2 -63 -35 -140 -73 -77 -38 -140 -73
-140 -77 0 -5 29 -67 65 -138 36 -71 65 -132 65 -135 0 -3 -19 -5 -42 -5 l-41
0 7 -117 c3 -65 9 -153 13 -196 l6 -78 61 7 c34 4 59 4 56 1 -3 -3 -32 -21
-64 -40 l-59 -36 -98 49 c-53 27 -99 53 -102 57 -2 4 29 85 70 178 42 94 77
180 80 192 6 28 -6 133 -15 133 -4 0 -18 -9 -32 -19 l-24 -19 27 -38 c19 -28
23 -40 14 -45 -6 -3 -67 -14 -134 -24 -67 -10 -127 -21 -132 -24 -7 -4 -2 -58
13 -151 l24 -145 -82 -157 c-85 -164 -92 -171 -95 -75 -1 20 -6 37 -12 37 -22
0 -99 -61 -92 -73 3 -7 28 -45 55 -84 27 -40 46 -73 43 -73 -10 0 -250 -52
-253 -55 -2 -2 11 -74 29 -160 l32 -156 -44 -47 c-24 -26 -71 -75 -104 -110
l-59 -62 72 -73 c39 -40 72 -76 72 -80 0 -4 -28 -82 -61 -173 -34 -92 -58
-169 -53 -173 5 -4 51 -23 102 -41 50 -18 92 -36 92 -40 0 -4 -26 -18 -58 -32
l-58 -25 -44 38 -44 38 -36 -42 c-133 -152 -210 -243 -210 -249 0 -3 22 -24
48 -46 l48 -41 96 74 95 74 42 -92 c23 -51 41 -97 41 -103 0 -16 -81 -116 -88
-109 -3 3 -9 35 -13 71 -3 36 -9 67 -12 71 -6 5 -225 -32 -233 -40 -2 -1 12
-86 31 -187 20 -100 34 -184 33 -185 -2 -2 -29 -17 -60 -35 -32 -17 -60 -35
-62 -39 -2 -3 33 -72 79 -151 46 -80 81 -148 77 -151 -4 -3 -28 -12 -54 -19
-27 -7 -48 -15 -48 -17 0 -7 43 -157 46 -162 2 -1 51 11 111 29 59 17 116 34
126 36 9 3 15 10 12 15 -9 13 -14 15 174 -51 l172 -60 14 33 c7 18 17 45 20
60 10 39 22 33 30 -13 4 -22 12 -40 19 -40 10 0 113 33 173 54 16 7 -36 166
-55 166 -8 0 33 50 89 111 l103 111 -57 55 c-32 31 -56 57 -54 59 2 2 17 0 34
-5 l31 -9 41 157 c22 86 43 170 47 186 l6 31 -74 17 c-40 10 -79 21 -86 26 -7
4 28 16 90 29 56 12 104 24 106 26 5 6 -68 346 -78 365 -5 9 14 50 51 113 33
55 59 104 59 108 0 5 -47 37 -105 71 -118 69 -117 61 -19 113 l51 28 119 -55
c65 -30 120 -59 121 -64 4 -11 -109 -199 -170 -282 -25 -35 -44 -68 -41 -73 3
-5 18 -8 32 -6 27 3 27 3 24 -57 -2 -33 -8 -89 -13 -125 -5 -36 -9 -68 -9 -72
0 -6 103 27 118 38 2 1 -15 50 -38 109 -22 60 -39 109 -37 111 1 2 73 9 160
17 87 8 159 16 162 18 4 5 -23 320 -31 357 -3 13 -12 22 -24 22 -17 0 -12 15
41 126 32 69 59 129 59 133 0 4 -47 29 -105 56 -57 26 -103 51 -100 55 2 4 28
10 57 14 29 4 68 9 86 12 29 6 32 4 32 -20 0 -15 6 -29 14 -32 8 -3 55 2 106
11 50 10 93 15 95 13 7 -6 -38 -169 -84 -305 -39 -114 -48 -153 -36 -153 9 0
319 182 334 195 11 11 1 34 -63 142 -42 71 -76 132 -76 135 0 3 20 8 44 11 30
4 102 -4 213 -23 92 -16 175 -30 183 -30 12 0 22 40 47 182 18 102 29 186 24
191 -5 5 -94 -33 -202 -87 -106 -53 -198 -96 -204 -96 -7 0 -20 47 -32 120
l-19 119 25 3 c23 3 26 7 24 38 l-2 35 14 -40 c7 -22 14 -47 14 -55 3 -43 12
-43 197 4 98 26 186 50 195 55 12 7 22 2 39 -21 22 -30 22 -32 8 -104 -8 -41
-12 -74 -9 -74 4 0 24 18 46 40 30 31 42 37 52 28 15 -12 5 -20 158 118 55 50
107 91 115 91 15 0 313 54 317 58 3 2 -36 208 -40 211 -2 2 -56 -47 -120 -108
-65 -61 -122 -107 -126 -102 -4 5 -46 52 -94 105 l-88 97 63 56 63 56 42 -87
c23 -49 43 -92 45 -96 2 -5 71 23 153 61 l150 70 189 -24 c103 -14 190 -23
193 -21 2 3 13 76 25 163 11 88 24 161 29 162 5 2 9 11 9 20 -1 14 -4 13 -18
-4 -10 -12 -81 -57 -158 -99 -76 -43 -156 -89 -177 -102 -22 -14 -41 -23 -43
-21 -8 9 -114 237 -114 247 0 6 15 11 33 11 36 0 52 8 59 30 3 8 9 -6 13 -33
4 -26 11 -49 14 -52 4 -2 74 12 156 31 l148 35 209 -27 c147 -19 212 -24 217
-16 3 6 17 93 30 194 12 101 24 184 24 185 1 0 60 9 132 18 71 9 132 19 134
21 5 5 -27 297 -36 328 -5 17 0 18 54 11 l59 -6 28 158 c16 87 34 172 41 190
12 28 12 32 -3 31 -29 -2 -182 25 -182 32 0 4 45 26 100 50 55 23 102 45 104
49 3 4 -27 78 -65 166 -43 99 -66 162 -60 168 6 6 31 -4 68 -26 l58 -36 20 32
c11 18 57 90 102 161 l82 130 -49 33 c-27 18 -53 33 -58 33 -6 0 -36 -32 -68
-71 l-58 -71 -27 32 c-15 17 -44 56 -64 86 -35 51 -37 56 -22 72 16 15 22 14
87 -18 38 -18 71 -32 73 -29 10 10 166 307 169 319 2 9 -21 27 -57 47 l-60 32
33 7 c21 4 32 12 32 23 0 19 -77 351 -82 357 -2 2 -30 -3 -62 -10 l-59 -14 7
76 c3 43 9 129 12 193 l7 116 -82 7 -82 7 45 55 c25 30 66 78 91 108 25 29 45
57 45 62 -1 5 -61 59 -134 119 l-133 110 -28 77 -27 77 -41 -15 c-23 -8 -46
-13 -52 -10 -6 2 -26 53 -44 112 -19 60 -37 113 -41 117 -4 5 -71 -12 -148
-37 -78 -25 -152 -46 -166 -46 -24 0 -127 20 -135 27 -3 2 22 30 54 63 l59 60
106 0 c58 0 122 3 143 7 l39 6 -78 78 -78 79 -38 -37 -38 -37 -125 124 c-101
101 -128 134 -141 172 -8 27 -17 48 -18 48 -2 0 -29 -9 -61 -20 -77 -27 -94
-27 -70 0 19 21 17 22 -123 163 l-142 142 -50 -50 -50 -50 25 -95 c14 -52 35
-123 46 -158 12 -34 19 -69 16 -76 -5 -12 -175 -116 -190 -116 -3 0 -15 20
-26 44 -37 85 -38 81 29 106 33 12 60 28 60 35 0 7 -25 81 -55 165 -30 83 -53
155 -50 160 7 11 -4 103 -14 118 -4 7 -58 2 -166 -17 -88 -16 -153 -31 -145
-34 8 -4 58 -16 110 -27 52 -11 106 -23 120 -26 20 -5 -3 -16 -109 -55 -193
-71 -171 -72 -224 13 l-46 73 72 28 c40 16 76 32 80 36 4 4 -24 51 -64 105
l-71 97 -32 -24 c-111 -84 -215 -157 -222 -157 -5 0 -39 54 -77 119 l-68 120
-138 -80 c-76 -43 -143 -79 -148 -79 -5 0 -61 47 -124 105 l-114 105 -83 -88
-82 -87 6 38 c3 20 2 37 -2 37 -5 0 -94 11 -199 24 -104 14 -191 23 -193 21
-2 -2 -8 -36 -14 -77 -5 -40 -11 -74 -13 -76 -1 -2 -24 37 -50 85 -27 48 -53
96 -60 105 -10 15 -25 9 -145 -59z m730 -290 l64 -76 -69 -64 c-39 -34 -73
-63 -76 -63 -4 0 -14 21 -24 46 -16 42 -16 48 -2 55 11 7 17 33 22 94 4 47 10
85 14 84 3 0 35 -35 71 -76z m-830 -39 l33 -61 -44 -57 c-28 -36 -46 -51 -50
-43 -4 6 -13 41 -21 77 -14 62 -14 69 5 118 23 62 26 60 77 -34z m-502 60 c-3
-18 18 -26 182 -75 l75 -23 -120 -28 c-65 -16 -122 -33 -125 -39 -4 -5 -28 18
-54 51 -27 34 -46 63 -43 66 8 8 82 63 85 64 2 0 2 -7 0 -16z m-316 -78 l37
-75 -41 -30 c-23 -17 -46 -31 -50 -31 -4 0 -28 40 -53 90 l-45 89 43 11 c23 6
47 13 52 15 6 2 12 4 15 4 3 1 22 -32 42 -73z m2136 -15 c47 16 87 27 89 25 2
-1 -58 -28 -134 -59 l-137 -57 -33 32 c-18 18 -33 37 -33 42 0 6 21 32 47 58
l47 48 34 -59 35 -59 85 29z m282 -3 c0 -13 26 -9 102 18 120 42 119 40 -20
-46 -73 -45 -135 -81 -136 -79 -7 7 -66 151 -66 159 0 5 12 13 28 18 24 9 30
6 59 -26 18 -21 33 -40 33 -44z m-1263 52 c-6 -22 -2 -24 106 -41 42 -7 74
-16 70 -20 -5 -4 -49 -24 -100 -44 l-92 -37 -56 43 c-30 23 -53 44 -50 47 10
10 110 70 119 71 4 1 6 -8 3 -19z m1113 -10 c-8 -5 -19 -10 -25 -10 -5 0 -3 5
5 10 8 5 20 10 25 10 6 0 3 -5 -5 -10z m-2665 -390 l40 -81 -40 -34 c-22 -19
-45 -33 -52 -30 -6 2 -36 23 -67 47 l-56 43 40 7 c71 12 80 22 80 84 0 30 3
53 8 51 4 -3 25 -42 47 -87z m1609 7 c16 -39 29 -76 28 -82 0 -5 -23 -20 -51
-32 l-50 -22 -30 43 -30 43 47 62 c26 33 49 61 52 61 3 0 18 -33 34 -73z
m-2429 3 l59 -60 -52 0 -52 0 -1 -62 -1 -63 -22 85 c-23 88 -26 91 -76 76 -20
-6 -14 2 25 38 28 25 52 45 55 46 3 0 32 -27 65 -60z m1610 -16 l17 -76 41 6
c23 4 53 9 67 12 14 3 -11 -19 -59 -50 -46 -31 -88 -56 -92 -56 -5 0 -9 29 -9
65 0 36 -3 65 -7 65 -5 -1 -35 -7 -68 -15 -33 -8 -66 -15 -73 -15 -10 0 154
139 164 140 1 0 10 -34 19 -76z m1620 34 c9 -24 19 -49 22 -55 3 -9 -4 -13
-21 -13 -22 0 -26 -4 -26 -29 l0 -30 -66 19 c-64 18 -82 27 -73 33 2 1 32 28
66 60 34 31 66 57 71 57 5 0 18 -19 27 -42z m822 -44 c12 -32 22 -62 22 -65 1
-7 -79 -39 -98 -39 -7 0 -35 18 -62 39 l-49 39 72 46 c40 25 78 44 83 43 6 -2
20 -30 32 -63z m844 45 c35 -12 66 -24 68 -26 3 -2 -22 -32 -56 -66 l-60 -62
6 -62 c4 -35 4 -63 1 -63 -6 0 -113 188 -118 207 -4 14 66 93 82 93 7 0 41
-10 77 -21z m-3647 -46 c25 -32 46 -61 46 -65 0 -5 -27 -8 -60 -8 l-60 0 -1
-47 -1 -48 -38 80 c-21 44 -39 85 -39 91 -1 10 74 52 96 53 6 1 32 -25 57 -56z
m831 3 c45 -40 48 -45 30 -52 -11 -3 -44 -23 -73 -42 -28 -19 -53 -33 -55 -31
-2 2 -22 28 -46 57 -24 29 -42 54 -40 56 2 2 31 10 64 18 34 8 59 20 58 26 -5
21 11 13 62 -32z m763 31 c8 -10 4 -39 -16 -110 -15 -53 -29 -97 -33 -97 -6 0
-74 159 -74 174 0 8 80 44 101 45 6 1 16 -5 22 -12z m821 -30 l24 -44 -39 -52
-39 -52 -3 55 -3 55 -82 3 -82 3 85 37 c47 20 92 37 100 37 9 1 26 -19 39 -42z
m-3699 -299 c0 -57 4 -109 9 -117 7 -10 22 -12 62 -7 l54 6 -45 -40 c-25 -22
-49 -40 -53 -40 -16 0 -198 83 -195 89 10 20 154 210 161 210 4 1 7 -45 7
-101z m3228 -64 l-3 -44 42 0 c24 0 43 -3 43 -6 0 -5 -39 -76 -68 -123 -14
-24 -15 -24 -39 35 -25 61 -25 65 5 164 17 59 26 48 20 -26z m855 -2 c15 -35
27 -68 27 -74 0 -18 -72 -100 -81 -91 -4 4 -19 39 -33 76 l-26 68 37 49 c21
28 40 47 43 42 4 -4 19 -35 33 -70z m827 36 c0 -12 8 -30 18 -41 16 -18 16
-19 -8 -16 -24 4 -26 0 -45 -88 -11 -51 -22 -93 -25 -93 -6 0 -63 201 -58 204
20 16 96 56 106 56 6 0 12 -10 12 -22z m-1200 -40 c45 -34 65 -55 58 -60 -7
-4 -45 -19 -85 -33 l-72 -27 -56 32 c-30 17 -55 34 -55 37 0 2 29 1 65 -2 l65
-7 0 56 c0 31 2 56 5 56 3 0 37 -23 75 -52z m794 -12 c14 -25 26 -48 26 -53 0
-5 -31 -18 -69 -29 l-68 -20 -44 37 -44 38 65 29 c72 32 92 40 102 41 3 1 18
-19 32 -43z m808 -329 c23 -15 49 -30 57 -36 13 -8 -1 -31 -86 -140 -4 -5
-103 40 -109 50 -2 4 4 5 15 2 16 -4 21 6 35 74 10 43 20 87 23 98 6 19 6 19
14 -1 4 -12 27 -33 51 -47z m-5982 -53 c24 3 40 2 35 -2 -6 -5 -63 -53 -127
-107 -65 -54 -118 -102 -118 -106 0 -4 41 -56 90 -114 50 -58 90 -108 90 -110
0 -6 -131 -78 -134 -74 -2 2 -33 40 -69 83 l-66 79 25 49 c26 52 114 262 114
273 0 4 -16 5 -35 3 -19 -2 -35 -1 -35 3 0 4 12 32 26 63 l25 56 67 -51 c63
-48 70 -50 112 -45z m4345 17 c16 -44 29 -83 29 -88 1 -4 -21 -16 -47 -27
l-48 -20 -30 31 -31 30 42 77 c23 42 45 76 49 76 4 0 20 -36 36 -79z m-3628 6
c46 -53 51 -64 38 -76 -12 -12 -10 -17 11 -33 51 -41 84 -141 84 -259 l0 -77
-107 -25 c-58 -14 -109 -31 -113 -37 -4 -7 -15 -4 -31 10 -23 20 -23 21 -3 15
21 -5 24 3 58 147 20 84 39 169 42 189 l6 35 -56 13 -55 12 26 57 c14 31 27
65 30 75 3 9 8 17 12 16 3 0 30 -28 58 -62z m4448 -82 c4 -23 0 -37 -19 -60
l-25 -30 -1 52 0 52 -54 3 -55 3 57 64 56 64 18 -59 c10 -32 20 -72 23 -89z
m1282 91 c39 -25 39 -25 14 -124 -27 -108 -54 -278 -48 -302 4 -17 0 -20 -34
-20 l-39 0 0 -42 c0 -68 -9 -72 -68 -27 -36 28 -50 44 -44 52 38 50 160 214
165 223 4 8 -36 44 -104 95 l-112 83 98 30 97 30 -6 29 -6 29 28 -18 c15 -9
42 -27 59 -38z m-6171 -5 l41 -19 -21 -81 c-11 -44 -24 -81 -27 -81 -10 0
-152 170 -147 175 5 5 77 23 98 24 8 0 33 -8 56 -18z m4519 -27 l40 -35 -57 6
-58 6 -1 -58 c-1 -101 -11 -103 -51 -9 l-36 85 52 20 c28 11 56 20 61 20 6 1
28 -15 50 -35z m755 -5 c27 -6 50 -13 50 -15 0 -5 -60 -127 -66 -133 -1 -2
-38 25 -80 60 l-78 63 55 17 c68 21 59 21 119 8z m-1174 -433 c3 -15 -6 -31
-34 -59 l-39 -38 -69 42 c-38 24 -71 45 -74 47 -2 2 31 36 75 77 l80 73 28
-60 c15 -34 30 -70 33 -82z m827 52 l38 -33 -65 -64 c-36 -36 -67 -63 -70 -60
-2 2 -11 28 -19 57 -13 42 -13 52 -3 52 16 0 26 31 26 83 l0 38 28 -19 c15
-11 44 -35 65 -54z m766 32 c30 -21 56 -41 58 -44 4 -4 -90 -134 -100 -139 -3
-1 -23 20 -45 47 l-40 49 31 63 c17 35 34 64 37 64 4 0 30 -18 59 -40z m-389
-20 l81 -40 -65 -55 c-35 -30 -68 -55 -73 -55 -5 0 -31 22 -57 49 l-49 49 38
46 c21 25 39 46 41 46 3 0 40 -18 84 -40z m-5292 -11 c31 -6 62 -14 69 -18 8
-4 -5 -28 -40 -73 -29 -37 -55 -67 -58 -68 -4 0 -25 36 -48 79 l-41 79 27 20
c22 16 29 18 31 7 2 -8 28 -19 60 -26z m4500 -29 c52 0 82 -4 77 -9 -6 -5 -48
-19 -95 -31 -47 -13 -90 -27 -96 -31 -12 -9 -104 64 -94 74 3 3 30 16 60 29
l55 25 3 -29 3 -28 87 0z m-4051 -295 c58 -8 170 -43 177 -54 3 -4 -60 -34
-139 -65 l-145 -58 -32 28 c-18 15 -33 31 -33 35 0 5 25 40 55 79 39 50 57 66
62 56 4 -8 29 -17 55 -21z m3993 1 c0 -7 10 -45 23 -85 l23 -71 -39 -27 c-24
-16 -41 -23 -45 -17 -4 6 -22 34 -40 62 l-34 51 48 55 c46 52 64 61 64 32z
m-4817 -57 c21 -39 37 -72 35 -74 -2 -1 -22 -14 -46 -29 l-43 -27 -70 42 -70
42 38 31 c21 17 51 43 68 58 16 15 35 27 40 28 6 0 27 -32 48 -71z m5648 29
c79 -97 74 -86 36 -102 -30 -12 -44 -12 -115 3 -44 9 -83 19 -87 22 -6 7 111
119 124 119 4 0 23 -19 42 -42z m784 -7 c9 -28 20 -51 24 -53 5 -2 -1 -36 -13
-76 l-22 -73 -48 72 -48 72 23 31 c12 17 30 41 38 53 9 12 19 23 23 23 3 0 14
-22 23 -49z m-1962 -16 l59 -54 -77 -51 c-43 -28 -79 -49 -82 -47 -2 2 1 16 7
31 11 29 8 31 -89 67 -13 5 -21 13 -17 17 31 30 114 91 126 91 8 0 41 -24 73
-54z m1603 9 c35 -25 66 -49 69 -54 2 -4 -30 -30 -73 -59 l-77 -51 -27 78 -26
77 31 28 c17 15 33 27 35 27 2 0 32 -21 68 -46z m-5657 -2 l45 -39 -59 -72
-58 -72 -43 77 c-24 42 -44 78 -44 79 0 4 103 64 110 65 3 0 25 -17 49 -38z
m4849 -9 c2 -7 -3 -13 -11 -13 -9 0 -18 -22 -27 -72 -7 -40 -14 -76 -17 -81
-2 -4 -29 25 -59 64 -31 39 -54 72 -52 74 8 7 134 43 147 42 8 -1 16 -8 19
-14z m1516 -68 c-4 -8 -7 -15 -8 -15 0 0 -21 7 -46 14 l-45 15 52 0 c43 1 51
-2 47 -14z m66 -175 c0 -4 16 -43 36 -86 l37 -78 -42 -84 -42 -84 -39 51 -38
52 19 67 c11 37 27 93 36 124 9 32 20 55 25 52 4 -3 8 -9 8 -14z m-2440 -75
c66 -98 68 -103 32 -97 l-29 4 -6 -69 c-4 -37 -7 -87 -7 -110 0 -23 -5 -45
-11 -49 -8 -5 -9 23 -4 100 l7 106 -30 0 c-17 0 -33 3 -35 8 -3 4 1 45 9 92 7
47 14 86 14 88 1 11 16 -8 60 -73z m1225 -25 c17 -57 17 -64 1 -137 -9 -42
-18 -79 -20 -81 -2 -2 -19 18 -36 43 -23 33 -29 49 -21 54 7 4 19 47 28 94 8
48 19 87 23 87 4 0 15 -27 25 -60z m-5636 -35 c23 -41 40 -79 37 -84 -3 -5
-22 -18 -41 -30 l-35 -20 0 34 c0 35 0 35 -45 35 -25 0 -45 4 -45 9 0 14 71
131 79 131 4 0 26 -34 50 -75z m801 -4 l30 -73 -37 -50 c-42 -57 -44 -55 -63
45 -9 51 -16 67 -26 63 -8 -3 -14 -3 -14 0 0 9 72 95 76 91 2 -2 17 -36 34
-76z m788 52 c8 -14 34 -17 175 -21 158 -4 167 -4 202 18 l36 22 47 -38 c26
-20 51 -41 55 -44 5 -4 -5 -45 -21 -91 -16 -46 -35 -111 -41 -144 -7 -33 -15
-67 -17 -75 -3 -8 -33 59 -66 150 -32 91 -62 168 -66 172 -4 3 -73 -17 -154
-47 l-148 -53 -57 14 c-32 8 -64 17 -72 20 -9 3 5 24 45 68 32 35 62 64 66 65
4 0 11 -7 16 -16z m3271 -53 c0 -3 -10 -41 -24 -85 l-24 -80 0 53 -1 52 -37 1
c-21 0 -56 3 -78 7 l-39 7 79 52 80 51 22 -26 c12 -15 22 -29 22 -32z m-4427
0 c31 -25 57 -48 57 -51 1 -3 -36 -13 -81 -21 -76 -13 -83 -16 -81 -36 2 -12
1 -22 -1 -22 -6 0 -66 99 -66 109 0 10 101 72 111 68 3 -1 30 -22 61 -47z
m4745 18 c-2 -20 6 -23 81 -38 45 -10 84 -19 86 -21 2 -2 -17 -19 -43 -36
l-47 -33 -98 28 -97 28 58 46 c32 26 59 47 60 48 2 0 2 -10 0 -22z m-3951 -9
c13 -15 14 -20 4 -17 -10 2 -20 -18 -34 -72 -10 -41 -20 -76 -22 -78 -3 -4
-152 111 -153 118 -1 7 150 68 170 69 9 1 24 -8 35 -20z m4845 -12 c8 -18 7
-32 -4 -59 l-15 -35 -83 19 c-132 31 -132 30 -33 65 108 38 121 39 135 10z
m394 -7 c44 -12 84 -24 88 -27 8 -5 -90 -83 -104 -83 -4 0 -46 15 -94 34 l-86
33 48 36 c26 19 53 34 58 32 6 -1 47 -13 90 -25z m-4870 -343 c14 -37 25 -70
25 -72 0 -3 -11 -5 -25 -5 -18 0 -25 -5 -25 -20 0 -23 -37 -28 -46 -7 -3 8 4
48 16 90 11 42 20 80 20 83 0 16 11 -6 35 -69z m-1593 -27 l47 -79 -37 -23
c-20 -12 -47 -28 -60 -36 -21 -14 -23 -12 -37 22 -20 47 -19 56 5 56 18 0 20
7 20 70 0 39 3 70 8 70 4 0 28 -36 54 -80z m5246 17 c23 -34 42 -67 42 -72 0
-6 -14 -26 -30 -45 -22 -27 -28 -31 -27 -15 2 15 -7 21 -41 29 -31 6 -41 13
-38 23 3 8 14 43 23 79 9 35 20 64 23 64 3 0 24 -29 48 -63z m1226 -17 c25
-35 46 -67 46 -71 0 -7 -105 -89 -114 -89 -12 0 -47 98 -42 120 9 45 46 124
55 114 5 -5 29 -38 55 -74z m-6091 -27 c6 -30 4 -33 -19 -33 -26 0 -26 -1 -19
-55 3 -30 4 -55 2 -55 -7 0 -87 137 -87 147 0 4 24 22 53 40 58 35 54 38 70
-44z m462 15 l54 -42 -70 -38 c-39 -21 -72 -38 -75 -38 -2 0 -4 20 -4 45 l0
45 -52 1 c-50 1 -51 1 -18 9 19 4 52 11 73 15 32 5 38 10 34 26 -7 26 -3 25
58 -23z m1169 -16 c-7 -2 -15 -13 -18 -25 -10 -44 -17 -273 -9 -317 8 -43 10
-45 46 -48 20 -2 37 -6 37 -9 0 -3 -21 -39 -47 -80 l-48 -75 -3 265 -2 266
-78 3 -77 3 100 36 100 36 5 -26 c3 -16 1 -27 -6 -29z m3561 38 c-5 -9 15 -16
123 -40 28 -7 52 -13 52 -15 0 -2 -32 -26 -70 -55 l-71 -51 -32 22 c-18 13
-49 36 -70 52 l-38 29 48 34 c48 33 69 42 58 24z m518 -26 c42 -16 77 -31 77
-34 0 -3 -41 -22 -91 -43 -87 -36 -92 -37 -110 -21 -11 10 -16 20 -11 23 5 3
15 30 22 59 7 31 17 52 24 49 6 -2 46 -17 89 -33z m-4920 9 c15 -3 30 -9 33
-14 5 -8 -30 -156 -40 -166 -2 -3 -23 31 -45 75 -37 74 -39 81 -24 101 10 15
21 20 32 16 9 -4 28 -9 44 -12z m3656 -2 c11 -7 12 -20 2 -73 -18 -95 -21 -97
-75 -33 l-48 55 41 0 c39 0 41 2 41 30 0 30 13 37 39 21z m-5150 -38 c21 -5
11 -11 -60 -39 l-84 -33 -3 27 c-2 15 -11 33 -20 40 -13 10 -2 12 64 12 43 0
90 -3 103 -7z m4851 4 c0 -2 -32 -32 -72 -67 -78 -70 -76 -71 -52 24 6 25 4
26 -32 27 l-39 2 35 7 c35 7 160 13 160 7z m-82 -334 c35 -39 59 -73 55 -76
-4 -2 -21 -7 -38 -11 -87 -20 -105 -28 -105 -43 0 -9 16 -73 35 -144 l35 -127
-15 -98 c-9 -54 -18 -100 -19 -102 -2 -1 -9 32 -15 75 -17 106 -19 113 -44
114 -19 0 -17 3 11 16 17 9 32 23 32 30 0 7 -15 64 -34 126 -50 165 -52 177
-28 177 17 0 21 12 32 81 10 63 15 78 24 67 7 -7 40 -45 74 -85z m-2882 -23
c1 -55 0 -100 -2 -100 -2 0 -14 5 -27 11 l-24 11 19 77 c21 83 26 101 30 101
2 0 4 -45 4 -100z m-762 21 c20 -39 36 -72 36 -75 0 -2 -24 -10 -54 -17 -48
-10 -60 -9 -122 11 -78 26 -78 26 30 35 l78 7 -7 54 c-3 30 -4 54 -2 54 3 0
21 -31 41 -69z m4854 5 c23 -34 42 -67 42 -72 0 -13 -98 -109 -105 -103 -2 3
-18 34 -34 69 l-29 65 37 52 c20 29 38 53 41 53 3 -1 24 -29 48 -64z m-381
-11 l75 -55 -83 -39 c-81 -37 -85 -38 -112 -22 -16 9 -33 22 -40 29 -8 11 -5
12 15 7 28 -7 30 -4 43 65 9 49 16 70 22 70 3 0 39 -25 80 -55z m773 18 c8
-21 16 -41 18 -45 2 -5 -5 -8 -16 -8 -17 0 -20 -10 -26 -71 l-8 -72 -64 64
c-35 35 -64 67 -64 70 0 9 122 98 135 99 6 0 17 -17 25 -37z m-5667 -75 c9 2
17 -1 17 -6 0 -21 -33 -103 -40 -100 -12 4 -139 112 -139 118 -1 3 30 24 67
47 l67 42 5 -52 c4 -43 8 -51 23 -49z m4438 43 c28 -6 57 -11 64 -11 23 0 19
-10 -36 -84 -58 -79 -60 -78 -86 32 -9 39 -21 72 -26 72 -6 0 -2 10 9 21 19
21 19 21 22 1 2 -16 15 -23 53 -31z m1664 -2 c22 -28 34 -54 29 -59 -5 -4 -26
-15 -46 -24 -37 -15 -38 -15 -38 8 0 22 -6 24 -87 32 l-88 9 95 42 c52 23 96
43 97 43 1 0 18 -23 38 -51z m-6470 -5 l24 -40 -37 -42 -37 -42 -82 47 c-46
26 -83 49 -83 52 0 8 163 70 178 68 7 -1 23 -20 37 -43z m1163 15 c26 -7 49
-13 50 -15 5 -4 -61 -174 -67 -174 -3 0 -15 37 -25 83 -10 45 -23 90 -28 100
-11 21 3 22 70 6z m-389 -382 l22 -88 -28 -50 c-31 -58 -33 -56 -53 59 -12 67
-12 79 5 128 10 30 22 51 25 47 4 -4 17 -48 29 -96z m5676 -2 c20 -49 42 -95
47 -102 7 -8 0 -26 -23 -58 -18 -25 -35 -45 -38 -45 -8 0 -111 137 -111 146 0
4 13 4 29 1 27 -6 29 -4 35 40 3 25 6 64 6 86 0 53 8 42 55 -68z m-4898 28
l-2 -68 74 -5 75 -5 -80 -33 c-43 -18 -82 -32 -86 -32 -3 0 -11 23 -18 50 -9
37 -9 58 -1 78 6 15 15 39 20 55 16 42 21 32 18 -40z m3682 -18 c18 -41 32
-78 32 -82 -1 -4 -17 -13 -36 -20 -35 -12 -35 -12 -35 18 0 28 -2 29 -45 29
-25 0 -45 3 -45 6 0 8 84 123 90 124 3 0 20 -34 39 -75z m-5239 6 c36 -32 63
-61 60 -62 -3 -2 -44 -41 -91 -87 l-86 -84 -18 74 -17 73 38 72 c22 40 41 73
44 73 3 0 34 -27 70 -59z m5671 -7 l34 -36 -40 4 -40 3 -10 -77 c-5 -42 -13
-79 -16 -83 -4 -3 -21 36 -40 87 -18 50 -29 93 -23 95 5 2 27 12 49 22 52 25
46 26 86 -15z m387 -39 c37 -4 71 -8 76 -9 11 -2 -95 -86 -109 -86 -4 0 -5 12
-2 26 5 29 3 30 -77 39 l-59 7 49 49 49 50 3 -35 3 -35 67 -6z m-5650 24 c52
-17 90 -35 85 -39 -4 -4 -47 -15 -95 -25 -67 -13 -88 -21 -88 -34 0 -11 -12
-4 -37 21 l-37 38 34 35 c19 19 36 35 39 35 3 0 48 -14 99 -31z m4487 -13 l30
-25 -67 -1 c-50 0 -68 -4 -68 -14 0 -11 -13 -11 -75 -1 -41 6 -77 14 -80 17
-3 3 34 15 82 28 49 12 95 26 103 30 16 9 32 2 75 -34z m-3643 2 c32 -13 58
-25 58 -28 0 -3 -47 -16 -104 -30 l-105 -25 -51 29 c-28 15 -50 30 -48 32 6 5
153 43 173 43 10 1 45 -9 77 -21z m-68 -371 c22 -85 22 -86 3 -116 -11 -19
-23 -28 -31 -23 -57 36 -96 66 -96 74 0 15 95 169 98 160 1 -5 13 -48 26 -95z
m4046 26 c24 -68 23 -81 -13 -163 l-24 -54 -21 64 c-27 79 -27 90 -2 83 19 -5
20 0 20 73 0 43 4 74 8 69 5 -6 19 -38 32 -72z m-357 -65 l82 -3 -57 -18 c-32
-9 -64 -20 -73 -23 -10 -4 -15 0 -15 10 0 11 -9 16 -26 16 -23 0 -25 3 -20 28
3 15 9 50 13 77 l8 50 3 -67 3 -67 82 -3z m-4507 61 c9 -40 9 -49 -2 -49 -11
0 -14 -19 -14 -81 0 -51 -4 -78 -10 -74 -5 3 -10 14 -10 24 0 10 -25 40 -56
66 l-56 48 63 63 c35 35 65 61 68 58 3 -3 11 -28 17 -55z m5692 -10 l53 -70
-52 -47 c-28 -26 -55 -48 -59 -50 -4 -2 -13 11 -19 29 -8 23 -8 55 1 120 7 49
15 89 18 89 3 0 29 -32 58 -71z m442 -35 c63 -12 116 -22 118 -23 1 -1 -29
-61 -67 -133 -37 -73 -79 -159 -92 -191 -20 -49 -30 -61 -73 -86 -54 -30 -252
-170 -314 -221 -20 -16 -38 -28 -40 -26 -7 7 -73 299 -69 309 2 6 21 16 43 23
l39 12 70 -75 70 -74 148 132 c81 73 147 135 147 138 0 3 -43 53 -95 110 l-94
104 42 32 c41 32 42 32 47 11 5 -18 21 -24 120 -42z m-5650 10 c0 -7 -93 -144
-97 -144 -3 0 -3 24 -1 53 l3 52 -77 3 c-43 2 -78 6 -78 10 0 4 41 16 90 26
60 12 90 23 90 32 0 10 9 8 35 -7 19 -12 35 -23 35 -25z m769 -25 c11 -29 21
-55 21 -58 0 -4 -14 -17 -30 -30 l-31 -22 -84 53 c-46 29 -84 56 -85 59 0 5
148 45 176 48 6 1 21 -22 33 -50z m3961 37 c0 -10 21 -16 78 -21 43 -4 84 -10
90 -14 7 -4 -30 -19 -82 -34 l-95 -27 -68 29 c-55 24 -64 31 -48 37 11 4 40
15 65 25 56 22 60 22 60 5z m-1178 -66 c-2 -30 -7 -71 -11 -90 -7 -34 -7 -33
-38 50 -30 85 -30 85 -9 92 11 3 30 6 41 5 18 -2 20 -8 17 -57z m430 -382
c-23 -9 -82 -8 -112 3 -22 7 -20 8 12 6 34 -3 36 -1 42 33 3 19 6 49 6 67 0
74 14 69 41 -17 25 -77 26 -86 11 -92z m797 87 c13 -47 22 -87 20 -89 -2 -2
-19 -7 -36 -11 -30 -6 -33 -5 -33 18 0 14 -7 32 -15 40 -12 13 -11 22 8 71 12
31 24 56 27 56 3 0 16 -38 29 -85z m-4821 -6 l57 -41 -45 3 -45 4 -9 -43 c-5
-23 -12 -42 -16 -42 -12 0 -30 49 -20 55 6 4 10 28 10 56 0 27 3 49 6 49 3 0
31 -18 62 -41z m3592 -39 l28 0 -15 -67 c-8 -38 -17 -75 -20 -83 -3 -9 -22 20
-50 74 -24 48 -43 89 -41 91 2 1 17 7 33 12 26 8 30 7 33 -9 2 -12 12 -18 32
-18z m895 11 l70 -29 -50 -7 c-27 -3 -72 -10 -98 -14 -47 -8 -48 -8 -54 20 -3
15 -13 30 -22 32 -10 2 -3 8 19 14 50 16 58 15 135 -16z m-1269 -353 l44 -88
-40 -20 c-54 -28 -60 -26 -60 21 l0 41 -60 -4 c-33 -1 -60 -1 -60 2 0 3 18 13
40 23 l40 19 0 91 0 92 26 -45 c14 -25 46 -84 70 -132z m784 13 c15 -96 20
-105 56 -98 27 4 25 1 -25 -44 -30 -26 -58 -46 -62 -44 -4 3 -13 22 -20 42
-10 30 -9 52 7 130 10 51 21 93 25 93 3 0 12 -35 19 -79z m-353 -47 c51 -10
89 -21 85 -25 -17 -16 -185 -70 -192 -63 -4 5 -17 30 -28 55 l-20 47 22 10
c11 5 26 6 31 2 6 -4 52 -16 102 -26z m763 -21 c0 -25 1 -26 53 -20 l52 6 -75
-40 -75 -40 -42 47 c-24 25 -43 49 -43 53 0 8 110 29 123 23 4 -2 7 -15 7 -29z
m-1170 -394 c0 -4 -20 -10 -45 -13 l-45 -7 6 -42 c8 -49 -1 -44 -40 24 -29 52
-25 59 35 59 28 0 29 1 30 53 l1 52 28 -60 c16 -33 29 -63 30 -66z m384 32
c19 -49 15 -58 -32 -67 -28 -6 -32 -4 -32 14 0 41 -8 47 -58 45 l-47 -3 70 34
c39 18 73 31 76 27 3 -3 14 -26 23 -50z m461 -48 c-3 -9 -20 -72 -37 -140 -17
-68 -32 -122 -34 -120 -4 4 -84 306 -84 317 0 5 19 15 43 23 l42 15 38 -39
c26 -27 37 -46 32 -56z m-1276 -292 c22 -38 41 -74 41 -79 0 -5 -25 -13 -56
-17 l-56 -7 6 -31 6 -32 -35 40 c-58 66 -59 71 -22 94 19 12 42 38 52 61 10
22 19 40 20 40 2 0 21 -31 44 -69z m-402 -12 c77 -42 92 -54 81 -64 -10 -10
-184 -152 -197 -161 -2 -2 38 -54 88 -116 50 -62 91 -116 91 -119 0 -4 -30
-24 -66 -44 l-66 -37 -53 52 -53 52 14 52 c8 28 27 116 43 196 24 116 28 153
21 185 -11 48 -12 55 -4 55 4 0 49 -23 101 -51z m777 9 c3 -13 7 -40 10 -60 4
-35 3 -38 -20 -38 -19 0 -26 6 -31 31 -6 29 -7 30 -47 24 l-41 -7 55 36 c30
19 58 36 62 36 4 0 10 -10 12 -22z m-394 -405 c6 -37 16 -70 21 -74 9 -5 -30
-108 -41 -109 -7 0 -90 155 -90 167 0 8 86 83 96 83 1 0 7 -30 14 -67z m-381
-373 c30 -57 31 -61 16 -89 -8 -16 -19 -32 -23 -35 -10 -6 -232 74 -231 83 0
5 186 99 200 100 3 1 21 -26 38 -59z m69 -420 l43 -27 -58 -12 c-32 -7 -65
-15 -74 -17 -11 -3 -19 -21 -24 -52 l-8 -47 -27 62 -28 61 20 56 21 55 46 -26
c25 -15 65 -39 89 -53z m-82 -382 l9 -53 49 3 49 3 -33 -58 c-18 -32 -35 -61
-39 -66 -7 -7 -201 140 -201 153 0 8 128 69 146 69 6 1 15 -23 20 -51z m-358
-362 c71 -57 73 -52 -46 -81 -69 -17 -73 -20 -68 -42 10 -37 -2 -27 -29 27
-31 60 -31 60 -1 60 47 0 56 9 56 57 0 51 -3 52 88 -21z m299 30 l-16 -23 107
-28 c59 -15 111 -31 115 -35 4 -4 -34 -42 -85 -84 l-93 -77 -25 100 c-14 55
-28 103 -32 107 -4 4 2 20 13 35 24 35 38 39 16 5z m-350 -423 c-3 -16 -11
-41 -17 -58 l-12 -30 -13 35 c-18 48 -18 47 13 64 36 20 35 20 29 -11z m404
-14 c37 -26 36 -33 -3 -45 -18 -5 -32 -15 -30 -22 3 -18 -15 -15 -97 15 -41
15 -68 29 -60 32 31 11 135 39 147 40 8 1 27 -8 43 -20z"/>
<path d="M7600 10646 c-23 -54 -63 -186 -58 -192 2 -2 36 41 75 95 l71 99 -29
21 c-15 11 -31 21 -34 21 -3 0 -14 -20 -25 -44z"/>
<path d="M2333 10493 c-24 -2 -43 -8 -43 -12 0 -8 102 -43 108 -36 7 7 -8 55
-16 53 -4 -1 -26 -3 -49 -5z"/>
<path d="M7502 9257 c-8 -9 0 -35 28 -95 41 -87 141 -262 150 -262 3 0 25 20
49 44 l44 45 -128 140 c-70 78 -129 141 -130 141 -1 0 -7 -6 -13 -13z"/>
<path d="M205 8840 c11 -59 16 -70 30 -70 28 0 26 21 -5 63 l-32 42 7 -35z"/>
<path d="M4588 8777 c-16 -6 -28 -14 -28 -17 0 -9 81 -234 86 -239 2 -2 4 57
4 132 0 151 1 149 -62 124z"/>
<path d="M5118 6563 c7 -3 16 -2 19 1 4 3 -2 6 -13 5 -11 0 -14 -3 -6 -6z"/>
<path d="M3471 6277 c-30 -33 -26 -41 9 -20 31 18 36 28 21 37 -4 3 -18 -5
-30 -17z"/>
<path d="M3406 6202 l-59 -3 6 -121 c4 -67 7 -152 7 -190 0 -59 2 -68 18 -68
14 0 22 16 36 73 35 141 65 302 58 307 -4 3 -34 4 -66 2z"/>
<path d="M3601 3090 c-63 -55 -117 -100 -120 -100 -3 0 -19 36 -36 80 -16 44
-31 80 -34 80 -11 0 -356 -133 -364 -139 -4 -4 -1 -27 8 -51 8 -24 14 -44 13
-46 -2 -1 -63 26 -136 61 l-132 64 -45 -96 c-25 -53 -45 -100 -45 -106 0 -13
163 0 281 23 52 10 95 17 95 16 5 -6 64 -167 64 -174 0 -5 -18 -21 -39 -35
l-40 -26 -14 65 c-9 36 -18 68 -21 71 -4 5 -314 -57 -368 -73 -10 -3 -18 -14
-18 -26 0 -17 -7 -14 -46 21 -26 23 -50 41 -54 41 -10 0 -213 -240 -207 -246
7 -7 169 14 255 32 40 9 75 15 77 12 2 -2 15 -53 28 -113 l25 -109 -33 -66
c-37 -72 -42 -75 -20 -15 8 22 14 57 15 77 0 36 -1 37 -42 42 -24 3 -115 7
-203 8 l-160 3 -6 -120 c-4 -66 -7 -145 -8 -175 -2 -50 -4 -52 -13 -27 -5 15
-14 27 -18 27 -20 0 -17 -17 9 -49 27 -33 31 -34 112 -39 l83 -5 -101 -31
c-56 -17 -104 -34 -108 -37 -3 -3 -1 -17 3 -30 8 -21 0 -34 -74 -112 -75 -78
-92 -107 -64 -107 4 0 43 25 85 56 43 30 81 52 85 47 4 -4 19 -47 33 -95 l24
-87 -31 -3 -31 -3 4 -85 3 -84 -58 53 c-76 70 -102 87 -115 74 -7 -7 23 -50
90 -130 89 -107 100 -124 103 -164 3 -42 4 -44 31 -41 34 4 35 8 -55 -135 -71
-113 -80 -93 85 -193 58 -36 107 -68 107 -72 0 -4 -27 -54 -61 -110 -33 -56
-61 -106 -62 -110 -1 -4 50 -39 113 -77 l115 -69 3 57 c2 32 -4 102 -12 155
l-14 98 31 45 c34 52 54 124 62 233 4 41 8 85 11 97 3 18 -6 28 -51 55 -30 18
-55 35 -55 39 0 8 149 21 161 13 19 -11 9 -34 -16 -34 -21 0 -24 -4 -20 -27 3
-16 12 -98 20 -183 14 -146 14 -166 -4 -330 -11 -96 -17 -178 -13 -181 4 -3
92 -16 197 -27 145 -16 191 -18 197 -9 4 7 8 30 9 52 1 77 9 80 63 19 l48 -55
-35 6 c-41 8 -43 5 -53 -101 -3 -40 -10 -77 -13 -83 -5 -8 -34 1 -92 28 -46
21 -120 50 -164 64 -123 39 -125 40 -125 25 1 -36 48 -223 56 -222 5 1 78 16
162 34 84 18 154 31 157 29 2 -3 0 -30 -4 -62 l-8 -57 31 -5 c41 -7 348 -45
362 -45 6 0 15 34 20 78 l9 77 24 -52 c13 -29 35 -77 50 -107 l26 -55 155 68
154 68 66 -24 c180 -69 254 -93 261 -86 4 4 34 80 67 168 40 108 56 162 48
166 -6 4 -37 12 -68 19 -32 6 -58 16 -58 21 0 13 83 179 90 179 3 0 22 -45 43
-100 l38 -99 49 19 c27 11 66 26 86 35 20 8 38 15 41 15 2 0 -14 -26 -36 -59
-72 -105 -158 -291 -136 -291 3 0 84 41 180 91 l174 90 -50 101 c-28 55 -49
101 -47 102 2 2 18 8 35 15 36 15 43 11 154 -81 l47 -38 112 141 c61 78 114
147 117 155 4 11 -4 14 -33 14 -54 0 -205 -26 -286 -48 l-67 -19 -46 115 c-25
63 -45 119 -45 124 0 4 20 18 43 29 l44 21 121 -81 c67 -44 124 -81 127 -81 3
0 40 53 82 118 91 140 82 129 92 113 6 -9 18 -11 40 -6 17 4 31 8 31 10 0 11
-49 207 -53 211 -2 3 -7 -18 -11 -46 -4 -27 -8 -50 -11 -50 -2 0 -40 23 -84
51 -79 51 -81 53 -64 71 33 36 48 39 86 12 l36 -24 107 157 107 156 -29 24
c-16 12 -32 23 -35 23 -4 0 -34 -29 -67 -65 l-61 -64 -44 56 -45 56 24 76 c13
42 29 94 36 115 l12 39 23 -93 c13 -51 24 -95 26 -96 2 -2 20 -1 41 3 l38 6
-6 56 c-3 31 -8 116 -12 189 l-7 132 -48 0 c-63 0 -78 -7 -71 -32 4 -15 1 -19
-13 -17 -10 2 -18 6 -18 9 1 27 38 200 42 200 3 0 24 -32 45 -70 22 -39 41
-68 44 -66 3 4 -22 147 -34 189 -3 9 -14 17 -25 17 -21 0 -23 8 -9 65 5 22 7
41 5 43 -5 5 -348 72 -372 72 -22 0 -31 -25 -49 -142 -9 -53 -18 -31 -29 65
l-7 69 -44 -4 c-24 -2 -44 -1 -44 2 1 4 85 63 173 122 7 4 4 16 -7 32 -20 31
-21 31 74 5 78 -21 271 -51 278 -44 6 6 -218 305 -227 305 -4 0 -50 -31 -101
-70 -51 -38 -97 -70 -102 -70 -4 0 -32 36 -60 80 -29 44 -57 80 -62 80 -4 0
-57 -34 -117 -75 -59 -41 -115 -75 -122 -75 -8 0 -61 22 -118 48 l-104 49 45
23 c25 12 76 43 114 67 l70 45 85 -26 c108 -32 321 -72 321 -60 0 6 -71 228
-76 235 -2 4 -74 -16 -161 -44 l-156 -50 -20 24 c-10 13 -60 66 -109 117 l-90
93 -91 -88 c-51 -49 -99 -94 -108 -101 -13 -10 -29 4 -100 88 -46 54 -88 99
-94 99 -5 0 -61 -45 -124 -99z m-92 -260 c43 -49 49 -60 32 -60 -22 0 -27 -12
-37 -92 -3 -32 -9 -58 -13 -58 -4 0 -36 43 -71 96 l-65 96 45 39 c25 21 48 39
51 39 3 0 29 -27 58 -60z m419 -23 l42 -42 -30 -60 c-28 -57 -29 -58 -27 -25
l2 35 -55 8 c-116 17 -113 12 -45 73 33 30 62 54 65 54 3 0 25 -19 48 -43z
m417 -384 l45 -68 -54 -9 c-55 -9 -55 -9 -58 -48 l-3 -39 -32 33 -31 33 38 83
c21 45 41 82 44 82 3 0 26 -30 51 -67z m-1197 -23 c17 -27 32 -54 32 -59 0 -5
-16 -23 -35 -40 l-36 -31 -92 46 c-100 51 -101 55 -3 69 36 6 52 14 68 36 12
16 24 29 27 29 3 0 21 -23 39 -50z m322 16 c0 -23 5 -25 91 -37 49 -6 86 -15
82 -19 -4 -4 -49 -21 -99 -38 l-92 -30 -42 43 -42 43 44 30 c52 38 58 39 58 8z
m500 -16 l41 -21 -63 -70 -63 -71 -11 28 c-22 55 -26 74 -15 74 6 0 11 12 11
28 0 15 3 37 6 49 7 24 17 22 94 -17z m-1226 -388 c-18 -3 -23 -17 -39 -98
-11 -52 -22 -91 -25 -87 -4 5 -20 52 -35 105 -27 94 -29 97 -53 91 l-24 -6 22
40 23 39 76 -40 c55 -30 70 -42 55 -44z m397 9 c-4 -4 -12 -24 -17 -46 -6 -22
-13 -39 -17 -38 -4 1 -27 5 -52 9 -25 3 -45 10 -45 15 0 5 14 38 32 74 l32 65
38 -37 c21 -20 34 -39 29 -42z m388 0 c11 -36 21 -68 21 -72 0 -12 -51 -17
-84 -8 -17 4 -50 13 -74 19 l-42 11 72 64 c40 35 76 61 79 57 4 -4 16 -36 28
-71z m784 7 c3 -35 2 -85 -3 -113 l-7 -50 -2 53 -1 52 -34 0 c-68 0 -70 7 -20
66 26 30 50 54 54 54 4 0 10 -28 13 -62z m432 -10 c12 -24 11 -35 -7 -88 -11
-33 -21 -60 -22 -60 -2 0 -2 19 -2 43 l1 42 -90 10 c-99 12 -93 20 24 30 l73
7 -5 47 c-4 36 -3 41 5 21 5 -14 16 -37 23 -52z m-765 -3 l34 -35 -57 0 -57 0
-2 -52 c0 -29 -1 -61 0 -70 1 -10 -2 -18 -6 -18 -9 0 -57 169 -50 175 6 6 80
33 94 34 5 1 25 -15 44 -34z m-462 -357 c12 -42 22 -81 22 -86 0 -5 -21 -13
-46 -17 -34 -5 -44 -10 -40 -21 8 -20 -1 -18 -32 7 -25 20 -25 21 -5 17 21 -6
24 1 45 93 13 54 26 95 29 91 3 -4 15 -41 27 -84z m1254 -30 c38 -12 67 -25
66 -29 -4 -11 -120 -99 -130 -99 -10 0 -118 71 -118 78 0 2 20 2 45 0 42 -5
45 -4 45 17 0 26 9 55 18 55 3 0 36 -10 74 -22z m-2017 -10 l100 -23 -65 -12
c-96 -18 -118 -17 -125 8 -7 20 -12 21 -63 15 -31 -4 -53 -4 -50 -1 4 4 77 30
98 34 3 1 50 -9 105 -21z m398 1 c27 -7 36 -14 29 -22 -65 -86 -101 -125 -105
-113 -3 8 -9 47 -13 86 l-7 73 29 -7 c16 -4 46 -12 67 -17z m737 2 c0 -16 11
-20 77 -26 l76 -7 -78 -34 c-43 -19 -82 -34 -86 -34 -10 0 -32 97 -24 110 11
17 35 11 35 -9z m487 -35 c-8 -11 -29 -45 -46 -73 -18 -29 -34 -53 -36 -53 -5
0 -40 78 -50 109 -5 17 -2 21 18 21 14 0 27 6 30 13 3 8 20 11 51 9 45 -4 46
-5 33 -26z m-859 -332 c15 -63 22 -78 35 -76 30 5 18 -7 -33 -33 -37 -19 -52
-22 -55 -13 -22 62 -35 102 -35 112 0 13 62 98 67 93 1 -2 11 -39 21 -83z
m1236 12 c26 -32 46 -62 46 -67 0 -4 -9 -13 -19 -18 -10 -6 -32 -31 -47 -56
-16 -25 -31 -45 -34 -45 -7 0 -70 127 -70 140 0 17 62 111 71 108 4 -2 28 -29
53 -62z m-1585 -15 l61 -49 -77 -25 c-43 -14 -78 -25 -79 -24 -1 1 -4 20 -6
42 -3 36 0 40 21 43 20 3 22 8 17 33 -3 16 -4 29 -2 29 2 0 31 -22 65 -49z
m1213 -1 c32 -19 58 -37 58 -40 0 -3 -39 -25 -85 -49 l-86 -45 -49 49 c-28 27
-50 52 -50 55 0 7 142 69 150 67 3 -1 31 -18 62 -37z m-427 -31 l19 -40 -46
-46 -46 -46 -36 72 c-26 51 -33 73 -24 76 96 32 112 31 133 -16z m390 -339
c19 -38 35 -74 35 -79 0 -5 -23 -17 -51 -26 -50 -17 -52 -17 -100 6 -27 12
-49 25 -49 27 0 5 120 137 127 141 2 0 19 -30 38 -69z m-1215 -32 l23 -77 -24
-20 -24 -19 -3 23 c-5 36 -28 49 -111 61 l-76 10 80 8 c111 10 108 9 102 62
-7 61 4 45 33 -48z m824 44 l27 -29 -41 -83 -40 -84 0 62 0 61 -82 3 -83 3 90
47 c50 26 93 47 96 47 3 1 18 -12 33 -27z m-409 -32 l16 -30 -30 0 c-32 0 -41
-17 -41 -83 l0 -38 -55 63 c-30 35 -55 66 -55 69 0 5 116 46 137 48 7 1 19
-12 28 -29z m-61 -360 l-7 -50 35 0 c20 0 56 -3 82 -6 l47 -7 -76 -33 c-41
-19 -87 -41 -100 -50 -24 -16 -29 -15 -90 12 -35 16 -64 31 -64 34 1 5 171
150 176 150 2 0 1 -22 -3 -50z m633 -93 c2 -2 -38 -3 -89 -3 l-91 1 -22 -54
-22 -55 -22 49 c-35 79 -36 92 -9 91 20 -1 23 4 26 41 l3 42 111 -55 c62 -30
113 -56 115 -57z"/>
<path d="M2241 1157 c-25 -40 -26 -47 -8 -47 12 0 41 69 33 78 -2 1 -13 -12
-25 -31z"/>
</g>
</svg>
